<svg width="13" height="13" viewBox="0 0 13 13" fill="none" xmlns="http://www.w3.org/2000/svg">
<path d="M3.1378 11.6135C2.71441 11.6135 2.29103 11.6131 1.86764 11.6135C1.53464 11.614 1.38327 11.4657 1.38459 11.1368C1.38766 10.2754 1.39337 9.41406 1.39293 8.55313C1.39293 8.39524 1.44821 8.27463 1.55789 8.16499C4.22455 5.49844 6.88946 2.83145 9.55524 0.164905C9.77505 -0.054822 10.0164 -0.054822 10.2353 0.164028C11.0996 1.0289 11.9635 1.89421 12.8274 2.75953C13.0564 2.9889 13.0573 3.21696 12.83 3.44415C10.169 6.10499 7.50721 8.76496 4.84713 11.4267C4.72647 11.5473 4.59441 11.6087 4.41935 11.6056C3.99246 11.5977 3.56513 11.603 3.13823 11.603C3.1378 11.6065 3.1378 11.61 3.1378 11.6135ZM2.2046 10.7907C2.23136 10.7929 2.24891 10.796 2.26646 10.796C2.93422 10.7951 3.60198 10.7956 4.26974 10.7899C4.31537 10.7894 4.37022 10.7539 4.40532 10.7193C6.39281 8.73382 8.37854 6.74663 10.3656 4.76032C10.3959 4.73005 10.4393 4.71295 10.4661 4.69628C9.73557 3.96649 9.03227 3.26389 8.3044 2.53717C8.28685 2.56348 8.26842 2.60559 8.23815 2.63585C6.33489 4.54059 4.43032 6.44401 2.52663 8.34788C2.42089 8.45357 2.27611 8.54436 2.2239 8.67242C2.16994 8.80443 2.20547 8.97329 2.20503 9.12635C2.20416 9.67676 2.2046 10.2272 2.2046 10.7907ZM11.0364 4.0564C11.3558 3.73711 11.6801 3.41301 11.9964 3.09679C11.3006 2.40121 10.5973 1.69773 9.89966 1.00083C9.58069 1.31968 9.25646 1.64335 8.93969 1.96C9.63641 2.65602 10.3397 3.3595 11.0364 4.0564Z" fill="url(#paint0_linear_59:1268)"/>
<path d="M5.81937 12.194C7.60811 12.194 9.39641 12.1935 11.1852 12.1944C11.4782 12.1944 11.6717 12.4282 11.6055 12.6983C11.5673 12.8549 11.4475 12.9654 11.2869 12.9891C11.2365 12.9966 11.1852 12.9987 11.1343 12.9992C7.58661 12.9996 4.03852 12.9996 0.49087 12.9992C0.432518 12.9992 0.373726 12.9974 0.31669 12.9873C0.119257 12.9523 -0.0114872 12.7799 0.0007975 12.5764C0.0126435 12.376 0.16357 12.2137 0.355738 12.1962C0.395663 12.1927 0.436027 12.194 0.475953 12.194C2.2568 12.194 4.03808 12.194 5.81937 12.194Z" fill="url(#paint1_linear_59:1268)"/>
<defs>
<linearGradient id="paint0_linear_59:1268" x1="2.11818" y1="1.39362" x2="19.0187" y2="11.2078" gradientUnits="userSpaceOnUse">
<stop stop-color="#00C3F3"/>
<stop offset="1" stop-color="#1759D6"/>
</linearGradient>
<linearGradient id="paint1_linear_59:1268" x1="0.7338" y1="12.2904" x2="1.0518" y2="14.9527" gradientUnits="userSpaceOnUse">
<stop stop-color="#00C3F3"/>
<stop offset="1" stop-color="#1759D6"/>
</linearGradient>
</defs>
</svg>
