<svg width="300" height="331" viewBox="0 0 300 331" fill="none" xmlns="http://www.w3.org/2000/svg">
<path fill-rule="evenodd" clip-rule="evenodd" d="M167.976 78.0203C166.925 34.7522 131.521 0 88 0C43.8172 0 8 35.8172 8 80C8 98.6165 14.3589 115.748 25.0232 129.34C9.94006 139.374 0 156.526 0 176C0 194.137 8.62248 210.261 21.9919 220.495C13.7404 230.445 9 242.074 9 254.5C9 268.411 14.9414 281.324 25.0994 292H263.58C264.508 288.152 265 284.133 265 280C265 276.043 264.549 272.192 263.697 268.494C285.973 248.624 300 219.7 300 187.5C300 155.954 286.537 127.553 265.044 107.728C267.592 101.659 269 94.9941 269 88C269 59.8335 246.167 37 218 37C193.249 37 172.616 54.6318 167.976 78.0203Z" fill="#092B4C"/>
<path d="M105.368 282.833C105.368 284.992 105.371 287.034 105.368 289.073C105.364 291.389 104.069 292.463 102.07 291.813C101.319 291.571 100.857 291.018 100.678 290.15C100.228 287.963 99.7447 285.783 99.3226 283.588C99.2117 283.015 99.0293 282.752 98.5107 282.833C98.364 282.857 98.2138 282.837 98.0636 282.837C71.3659 282.837 44.6683 282.845 17.9706 282.809C17.0227 282.809 16.7151 283.128 16.5506 284.137C16.2287 286.114 15.7494 288.056 15.3595 290.017C15.1735 290.961 14.7228 291.623 13.8751 291.813C12.8915 292.035 11.8506 292.075 11.1174 291.183C10.7847 290.776 10.6667 290.025 10.6524 289.424C10.5987 287.281 10.6309 285.138 10.6309 282.886C10.2303 282.865 9.88692 282.853 9.54354 282.829C8.06272 282.732 7.11843 281.691 7.01113 280.032C6.99682 279.738 7.0004 279.435 7.0004 279.132C7.0004 259.559 7.0004 278.24 7.0004 258.666C7.0004 258.262 7.00397 257.859 7.0469 257.459C7.19355 256.16 8.15214 255.126 9.31105 255.017C9.60793 254.993 9.90838 255.001 10.2053 255.001C42.0822 255.001 73.9591 255.001 105.836 255.013C106.416 255.013 107.038 255.094 107.564 255.34C108.379 255.716 108.869 256.478 108.959 257.508C108.987 257.843 108.998 258.177 108.998 258.512C109.002 278.187 109.002 259.607 108.987 279.282C108.987 279.939 108.934 280.65 108.705 281.235C108.304 282.26 107.51 282.785 106.498 282.833C106.154 282.845 105.807 282.833 105.368 282.833Z" fill="#4E8DAE"/>
<path d="M56.5783 269.28C56.5783 272.633 56.5783 275.991 56.5783 279.345C56.5783 279.474 56.5458 279.611 56.6271 279.736C56.7817 279.982 57.2088 280.136 57.9736 280.136C58.7627 280.132 59.2508 279.994 59.381 279.72C59.442 279.591 59.4217 279.458 59.4217 279.328C59.4217 272.617 59.4217 265.91 59.4217 259.198C59.4217 259.069 59.442 258.936 59.3769 258.807C59.2468 258.549 58.7668 258.419 58.0305 258.407C57.2739 258.399 56.8102 258.54 56.6434 258.787C56.558 258.912 56.5865 259.045 56.5865 259.178C56.5783 262.544 56.5783 265.91 56.5783 269.28Z" fill="#30617B"/>
<path d="M43.4031 268.996C43.4194 270.441 44.6397 271.619 46.0756 271.575C47.4627 271.535 48.6424 270.344 48.6546 268.972C48.6627 267.539 47.4627 266.361 46.0024 266.369C44.5096 266.377 43.3869 267.511 43.4031 268.996Z" fill="#7DBBDC"/>
<path d="M69.4647 266.369C68.0003 266.389 66.8207 267.596 66.8614 269.02C66.9061 270.401 68.102 271.563 69.4851 271.575C70.9291 271.587 72.1169 270.397 72.1088 268.944C72.1088 267.471 70.9617 266.349 69.4647 266.369Z" fill="#7DBBDC"/>
<path fill-rule="evenodd" clip-rule="evenodd" d="M38 125.192H89.2147V74H38V125.192Z" fill="#223C51"/>
<path fill-rule="evenodd" clip-rule="evenodd" d="M96.897 125.192H148.112V74H96.897V125.192Z" fill="#223C51"/>
<path fill-rule="evenodd" clip-rule="evenodd" d="M38 184.064H89.2147V132.871H38V184.064Z" fill="#223C51"/>
<path fill-rule="evenodd" clip-rule="evenodd" d="M96.897 184.064H148.112V132.871H96.897V184.064Z" fill="#223C51"/>
<path fill-rule="evenodd" clip-rule="evenodd" d="M263.58 292C258.184 314.376 238.033 331 214 331C196.627 331 181.284 322.314 172.075 309.047C155.053 316.581 134.341 321 112 321C75.9748 321 44.187 309.51 25.275 292H263.58Z" fill="#366248"/>
<path fill-rule="evenodd" clip-rule="evenodd" d="M104.388 292L90.3765 319.588C63.439 316.017 40.2958 305.907 25.275 292H104.388Z" fill="#FFD779" fill-opacity="0.1"/>
<rect x="255" y="151" width="32" height="51" rx="10" fill="white"/>
<circle cx="271.5" cy="187.5" r="2.5" fill="#00C3F3"/>
<path d="M251.23 121.864C251.241 121.384 251.634 121 252.115 121C252.604 121 253 121.396 253 121.885V171.204C253 172.748 251.748 174 250.204 174C250.092 174 250.002 173.908 250.005 173.796L251.23 121.864Z" fill="white"/>
<path d="M290.77 121.864C290.759 121.384 290.366 121 289.885 121C289.396 121 289 121.396 289 121.885V171.204C289 172.748 290.252 174 291.796 174C291.908 174 291.998 173.908 291.995 173.796L290.77 121.864Z" fill="white"/>
<rect x="253" y="167" width="2" height="4" fill="white"/>
<rect width="2" height="4" transform="matrix(-1 0 0 1 289 167)" fill="white"/>
<path d="M236.984 170.615C231.453 176.147 231.453 185.115 236.984 190.647" stroke="white" stroke-linecap="round" stroke-dasharray="7 7"/>
<path d="M224.52 158.151C211.859 170.812 211.66 191.141 224.075 203.556" stroke="white" stroke-linecap="round" stroke-dasharray="7 7"/>
<path d="M126.016 228.464C131.547 233.996 131.547 242.964 126.016 248.496" stroke="white" stroke-linecap="round" stroke-dasharray="7 7"/>
<path d="M138.48 216C151.141 228.661 151.34 248.99 138.925 261.405" stroke="white" stroke-linecap="round" stroke-dasharray="7 7"/>
<rect x="166" y="165.775" width="27" height="126" rx="2" fill="#5F1D21"/>
<line x1="166" y1="186.025" x2="193" y2="186.025" stroke="#87827F" stroke-width="1.5"/>
<line x1="166" y1="207.025" x2="193" y2="207.025" stroke="#87827F" stroke-width="1.5"/>
<line x1="166" y1="228.025" x2="193" y2="228.025" stroke="#87827F" stroke-width="1.5"/>
<line x1="166" y1="249.025" x2="193" y2="249.025" stroke="#87827F" stroke-width="1.5"/>
<line x1="166" y1="270.025" x2="193" y2="270.025" stroke="#87827F" stroke-width="1.5"/>
<line x1="179.75" y1="186.775" x2="179.75" y2="207.775" stroke="#87827F" stroke-width="1.5"/>
<line x1="179.75" y1="228.775" x2="179.75" y2="249.775" stroke="#87827F" stroke-width="1.5"/>
<line x1="179.75" y1="270.775" x2="179.75" y2="291.775" stroke="#87827F" stroke-width="1.5"/>
<path d="M87.4605 164.975C86.206 164.346 84.9754 163.745 83.7676 163.095C83.6032 163.007 83.4816 162.689 83.4821 162.475C83.4866 160.364 83.5051 158.249 83.5592 156.137C83.5722 155.635 83.4385 155.263 82.994 155.076C82.0805 154.692 81.7119 153.915 81.369 153.069C80.579 151.122 79.5636 149.322 77.973 147.883C76.1965 146.276 74.0925 145.316 71.7744 144.82C67.1562 143.831 62.5431 143.9 58.0377 145.474C53.2937 147.13 50.3653 150.51 49.3965 155.39C48.3365 160.732 49.1316 165.861 51.7153 170.632C52.7573 172.553 54.0441 174.343 55.217 176.195C55.5647 176.745 55.9116 177.299 56.248 177.856C56.6253 178.483 56.8171 179.087 56.5598 179.881C56.3342 180.58 56.3477 181.383 56.3849 182.133C56.4167 182.801 56.8602 183.26 57.5512 183.348C58.8736 183.519 60.1979 183.762 61.5248 183.775C67.3448 183.832 73.1643 183.843 78.9853 183.806C79.8394 183.801 80.7121 183.523 81.5412 183.259C82.9571 182.813 83.5326 181.762 83.1214 180.354C82.9569 179.788 83.0608 179.387 83.352 178.912C88.6163 170.331 93.8619 161.741 99.1363 153.167C99.3432 152.83 99.7317 152.55 100.096 152.38C100.769 152.067 101.489 151.853 102.19 151.599C102.843 151.362 103.463 151.113 104.217 151.297C104.567 151.383 105.146 151.143 105.41 150.858C105.78 150.469 105.606 149.912 105.327 149.467C103.994 147.345 102.257 145.686 99.7787 144.985C98.6932 144.675 97.5643 144.51 96.4489 144.311C95.8098 144.197 95.3604 144.444 95.1369 145.102C94.9411 145.675 94.997 146.103 95.5458 146.446C95.7204 146.556 95.8504 146.823 95.8892 147.039C96.0941 148.147 96.2748 149.261 96.4333 150.38C96.4592 150.57 96.3709 150.808 96.2637 150.98C93.3969 155.582 90.5192 160.182 87.6438 164.78C87.6093 164.829 87.5552 164.872 87.4605 164.975ZM57.0017 149.676C59.1222 148.449 61.3038 147.692 63.6383 147.389C66.7153 146.987 69.758 147.023 72.7102 148.069C74.4487 148.685 75.9655 149.643 77.131 151.081C77.8173 151.927 77.6502 152.516 76.6879 153.005C75.5325 153.593 74.3895 154.201 73.2265 154.773C72.9673 154.901 72.6464 154.976 72.3589 154.965C70.325 154.907 68.2927 154.778 66.2583 154.754C63.6348 154.721 61.0064 154.724 58.3831 154.795C57.1599 154.828 56.996 155.054 56.9845 156.279C56.9596 158.696 57.0129 161.114 56.9691 163.532C56.9318 165.686 56.8331 167.841 56.6923 169.989C56.6628 170.415 56.3132 170.822 56.1101 171.239C55.7568 170.924 55.2889 170.674 55.0673 170.286C53.5537 167.651 52.4339 164.859 51.9625 161.834C51.7014 160.153 51.4684 158.458 51.854 156.771C52.5608 153.661 54.5042 151.41 57.0017 149.676Z" fill="#87827F"/>
<path d="M111.77 193.864C111.759 193.384 111.366 193 110.885 193C110.396 193 110 193.396 110 193.885V243.204C110 244.748 111.252 246 112.796 246C112.908 246 112.998 245.908 112.995 245.796L111.77 193.864Z" fill="white"/>
<path d="M7.22961 193.864C7.24095 193.384 7.63387 193 8.11468 193C8.60363 193 9 193.396 9 193.885V243.204C9 244.748 7.74839 246 6.20445 246C6.09232 246 6.00218 245.908 6.00482 245.796L7.22961 193.864Z" fill="white"/>
<rect width="2" height="4" transform="matrix(-1 0 0 1 110 236)" fill="white"/>
<rect x="9" y="236" width="2" height="4" fill="white"/>
<rect x="10" y="224" width="99" height="27" rx="13.5" fill="white"/>
<circle cx="97" cy="238" r="2" fill="#00C3F3"/>
<circle cx="86" cy="238" r="2" fill="#00C3F3"/>
<circle cx="75" cy="238" r="2" fill="#00C3F3"/>
<circle cx="64" cy="238" r="2" fill="#00C3F3"/>
<rect x="23" y="251" width="7" height="4" fill="#87827F"/>
<rect x="90" y="251" width="7" height="4" fill="#87827F"/>
<path fill-rule="evenodd" clip-rule="evenodd" d="M105.368 283H99.1006C99.2064 283.129 99.2719 283.326 99.3226 283.588C99.5989 285.025 99.9012 286.455 100.204 287.885C100.363 288.64 100.523 289.395 100.678 290.15C100.857 291.018 101.319 291.571 102.07 291.813C104.069 292.463 105.364 291.389 105.368 289.073C105.37 287.722 105.369 286.37 105.368 284.984C105.368 284.331 105.368 283.671 105.368 283ZM17.0862 283C16.7922 283.192 16.6469 283.546 16.5506 284.137C16.3453 285.398 16.0758 286.645 15.8065 287.892C15.6536 288.599 15.5007 289.307 15.3595 290.017C15.1735 290.961 14.7228 291.623 13.8751 291.813C12.8915 292.035 11.8506 292.075 11.1174 291.183C10.7847 290.776 10.6667 290.025 10.6524 289.424C10.6135 287.871 10.6197 286.318 10.6261 284.724C10.6283 284.155 10.6306 283.581 10.6309 283H17.0862Z" fill="#1D4D67"/>
<path d="M176.282 142.017L176.299 142.263L176.546 142.25L177.014 142.224L177.266 142.21L177.249 141.958L170.718 43.9834L170.701 43.7368L170.454 43.7504L169.986 43.7762L169.734 43.7901L169.751 44.0424L176.282 142.017Z" fill="#81A358" stroke="#81A358" stroke-width="0.5"/>
<path d="M179.313 143.893V144.143H179.563H180.018H180.268V143.893V22.0098V21.7598H180.018H179.563H179.313V22.0098V143.893Z" fill="#81A358" stroke="#81A358" stroke-width="0.5"/>
<path d="M184.184 143.267L184.434 143.272L184.439 143.022L186.095 70.0476L186.1 69.7977L185.85 69.792L185.396 69.7818L185.146 69.7762L185.141 70.0261L183.486 143.001L183.48 143.251L183.73 143.257L184.184 143.267Z" fill="#81A358" stroke="#81A358" stroke-width="0.5"/>
<path fill-rule="evenodd" clip-rule="evenodd" d="M179.524 46.9416C179.524 46.9416 166.849 36.1373 170.611 25.3545C174.373 14.5717 192.945 20.4073 187.045 39.861C187.045 39.861 185.127 44.8787 179.524 46.9416Z" fill="#4E9EAD"/>
<path fill-rule="evenodd" clip-rule="evenodd" d="M171.514 64.6746C171.514 64.6746 160.529 50.4624 166.248 40.4189C171.965 30.3751 208.767 38.6777 192.13 74.9239C175.492 111.17 162.636 86.7906 162.636 86.7906L171.514 64.6746Z" fill="#458489"/>
<path fill-rule="evenodd" clip-rule="evenodd" d="M179.791 77.4529C179.791 77.4529 178.135 53.0682 164.141 62.051C150.146 71.033 146.685 106.244 179.791 116.943V77.4529Z" fill="#4E9EAD"/>
<path fill-rule="evenodd" clip-rule="evenodd" d="M184.282 130.949C184.282 130.949 172.718 118.77 175.427 100.056C178.135 81.3434 199.202 81.3638 199.052 99.5429C198.901 117.722 195.089 122.778 184.282 130.949Z" fill="#68B4B7"/>
<path fill-rule="evenodd" clip-rule="evenodd" d="M185.19 129.474L184.79 129.365L190.561 91.1072L191.38 88.5351L185.614 126.962L196.707 95.3796L196.792 96.5421L185.19 129.474Z" fill="#E2F3F5"/>
<path fill-rule="evenodd" clip-rule="evenodd" d="M195.29 141.671L187.97 164.988H171.611L164.291 141.671H195.29Z" fill="#F1A34F"/>
<path fill-rule="evenodd" clip-rule="evenodd" d="M195.29 141.671C195.29 141.671 179.175 144.211 179.175 164.988H171.611L164.291 141.671H195.29Z" fill="#FFB973"/>
</svg>
