<svg width="272" height="392" viewBox="0 0 272 392" fill="none" xmlns="http://www.w3.org/2000/svg">
<path opacity="0.9" d="M0 340C0 354.912 12.0883 367 27 367H245C259.912 367 272 354.912 272 340H0Z" fill="#681D1E"/>
<path opacity="0.12" fill-rule="evenodd" clip-rule="evenodd" d="M78 340H0V174C0 128.441 35.0197 91.0605 79.6094 87.3095C87.9246 42.1851 127.47 8 175 8C228.572 8 272 51.4284 272 105V340H174H78Z" fill="#00C4FF"/>
<rect x="14" y="151" width="121" height="33" rx="2" fill="#70AFD0"/>
<rect x="24" y="145" width="32" height="51" rx="10" fill="white"/>
<circle cx="40.5" cy="181.5" r="2.5" fill="#00C3F3"/>
<circle cx="40.5" cy="175.5" r="0.5" fill="#00C3F3"/>
<circle cx="40.5" cy="172.5" r="0.5" fill="#00C3F3"/>
<circle cx="40.5" cy="169.5" r="0.5" fill="#00C3F3"/>
<path d="M20.2296 115.864C20.2409 115.384 20.6339 115 21.1147 115C21.6036 115 22 115.396 22 115.885V165.204C22 166.748 20.7484 168 19.2044 168C19.0923 168 19.0022 167.908 19.0048 167.796L20.2296 115.864Z" fill="white"/>
<path d="M59.7704 115.864C59.7591 115.384 59.3661 115 58.8853 115C58.3964 115 58 115.396 58 115.885V165.204C58 166.748 59.2516 168 60.7956 168C60.9077 168 60.9978 167.908 60.9952 167.796L59.7704 115.864Z" fill="white"/>
<rect x="22" y="161" width="2" height="4" fill="white"/>
<rect width="2" height="4" transform="matrix(-1 0 0 1 58 161)" fill="white"/>
<circle cx="79.5" cy="167.5" r="9.5" stroke="#F5F3F6" stroke-width="2"/>
<circle cx="79.5" cy="171.5" r="1.5" fill="#F5F3F6"/>
<line x1="83" y1="163" x2="83" y2="167" stroke="#F5F3F6" stroke-width="2"/>
<line x1="77" y1="163" x2="77" y2="167" stroke="#F5F3F6" stroke-width="2"/>
<path d="M124 166.5C124 171.747 119.747 179 114.5 179C109.253 179 105 171.747 105 166.5C105 161.253 109.253 157 114.5 157C119.747 157 124 161.253 124 166.5Z" fill="white" stroke="white" stroke-width="1.5"/>
<circle cx="114.5" cy="171.5" r="1.5" fill="white"/>
<line x1="117.75" y1="163" x2="117.75" y2="167" stroke="white" stroke-width="1.5"/>
<line x1="111.75" y1="163" x2="111.75" y2="167" stroke="white" stroke-width="1.5"/>
<path d="M114.5 157V280.5C114.5 293.479 125.021 304 138 304V304C150.979 304 161.5 293.479 161.5 280.5V274V266.5" stroke="white" stroke-width="1.5"/>
<rect x="128" y="262" width="120" height="11" fill="#709F84"/>
<rect x="137" y="273" width="9" height="67" fill="#709F84"/>
<rect x="231" y="273" width="9" height="67" fill="#709F84"/>
<path d="M137 273H146V324L137 334V273Z" fill="#437B5B"/>
<path d="M231 273H240V284L231 294V273Z" fill="#437B5B"/>
<path d="M240.77 199.864C240.759 199.384 240.366 199 239.885 199C239.396 199 239 199.396 239 199.885V249.204C239 250.748 240.252 252 241.796 252C241.908 252 241.998 251.908 241.995 251.796L240.77 199.864Z" fill="white"/>
<path d="M136.23 199.864C136.241 199.384 136.634 199 137.115 199C137.604 199 138 199.396 138 199.885V249.204C138 250.748 136.748 252 135.204 252C135.092 252 135.002 251.908 135.005 251.796L136.23 199.864Z" fill="white"/>
<rect width="2" height="4" transform="matrix(-1 0 0 1 239 242)" fill="white"/>
<rect x="138" y="242" width="2" height="4" fill="white"/>
<rect x="139" y="231" width="99" height="27" rx="13.5" fill="white"/>
<circle cx="226" cy="244" r="2" fill="#00C3F3"/>
<circle cx="215" cy="244" r="2" fill="#00C3F3"/>
<circle cx="204" cy="244" r="2" fill="#00C3F3"/>
<circle cx="193" cy="244" r="2" fill="#00C3F3"/>
<ellipse cx="90.5" cy="338" rx="2.5" ry="1" fill="#ADA39C"/>
<rect x="152" y="258" width="7" height="4" fill="#C4C4C4"/>
<rect x="219" y="258" width="7" height="4" fill="#C4C4C4"/>
<path fill-rule="evenodd" clip-rule="evenodd" d="M50.9912 361.747L123.402 85.0001H171.598L244.009 361.747C244.662 362.984 245 364.249 245 365.535C245 380.151 201.348 392 147.5 392C93.6522 392 50 380.151 50 365.535C50 364.249 50.338 362.984 50.9912 361.747Z" fill="#FFD779" fill-opacity="0.1"/>
<path fill-rule="evenodd" clip-rule="evenodd" d="M55.6501 278.664C58.4177 277.299 61.3427 276.466 64.5069 276.178C64.5069 274.973 64.5069 273.831 64.504 272.69C64.504 270.04 64.6732 267.42 65.7114 264.935C65.793 264.745 65.8047 264.507 65.7901 264.296C65.7586 263.799 65.7177 263.303 65.6767 262.806C65.6494 262.475 65.6221 262.144 65.5976 261.813C65.5625 261.338 65.5249 260.862 65.4873 260.387C65.3844 259.085 65.2815 257.785 65.2302 256.482C65.1806 255.218 66.1984 254.643 67.3124 255.232C67.453 255.305 67.5874 255.394 67.7212 255.482C67.7706 255.514 67.8199 255.547 67.8695 255.579C68.5048 255.989 69.1395 256.4 69.7743 256.811C71.587 257.985 73.4 259.159 75.2273 260.311C75.5889 260.54 76.073 260.678 76.5017 260.684C79.0973 260.719 81.6957 260.716 84.2912 260.687C84.7287 260.681 85.2069 260.572 85.5977 260.376C87.7929 259.264 89.9765 258.13 92.1595 256.996C92.6679 256.731 93.1762 256.467 93.6847 256.203C94.3058 255.881 94.9358 255.784 95.5365 256.215C96.1366 256.643 96.0215 257.267 95.912 257.86L95.9069 257.888C95.7689 258.633 95.6255 259.377 95.4822 260.121C95.2288 261.436 94.9756 262.75 94.752 264.07C94.6675 264.571 94.7608 265.117 94.8483 265.628C94.8861 265.845 94.9271 266.068 94.9695 266.298C95.2117 267.615 95.5 269.183 95.5 271.373C95.5 274 95.5 276 95 278C94.3299 280.681 93.752 282.18 92.5 284C91.1125 286.016 89.7622 286.849 87.9506 287.967C87.7745 288.075 87.594 288.187 87.4088 288.302C87.5492 288.536 87.6906 288.766 87.8308 288.994C88.1303 289.482 88.4248 289.961 88.6949 290.453C90.2259 293.246 91.3924 296.171 91.1241 299.428C90.9667 301.335 90.6109 303.239 90.1851 305.111C89.8249 306.696 89.4244 308.273 89.0238 309.849C88.5843 311.578 88.1447 313.308 87.7587 315.049C87.4467 316.46 87.26 317.927 87.6887 319.391C88.482 322.104 89.1798 325.083 89.8769 328.059C90.556 330.958 91.2344 333.855 92 336.5C93.6314 336.5 94.8192 338.422 94.668 340H85.0354C83.7061 337.281 81.7303 333.89 79.4151 332.448C78.9106 332.134 78.3274 331.914 77.7528 331.758C77.1987 331.609 76.84 331.928 76.875 332.509C76.91 333.087 77.0034 333.668 77.1288 334.237C77.653 336.604 77.1813 338.564 75.6945 340H30.9373C29.3841 339.684 27.8503 339.252 26.3441 338.662C23.6727 337.615 21.3572 336.062 19.6599 333.683C17.181 330.203 16.7436 326.251 17.1168 322.152C17.5193 317.689 18.6217 313.37 19.864 309.078C19.9959 308.623 20.1284 308.168 20.261 307.713C21.2192 304.424 22.1786 301.13 22.8882 297.785C23.5881 294.493 23.1944 291.406 20.0361 289.223C18.3854 288.085 18.2367 285.776 19.3682 284.095C20.5552 282.334 22.5791 281.712 24.3901 282.768C28.3796 285.092 30.7506 288.54 31.1735 293.234C31.4301 296.065 31.0685 298.847 30.3394 301.564C29.7496 303.764 29.1075 305.951 28.4654 308.137C27.974 309.81 27.4826 311.483 27.0148 313.162C25.9649 316.924 25.0055 320.706 24.9384 324.646C24.8771 328.229 26.3236 330.359 29.7153 331.453C31.2522 331.949 32.8503 332.327 34.4485 332.539C35.865 332.724 37.2942 332.802 38.7558 332.882C39.3946 332.917 40.0395 332.952 40.6923 332.996C40.6575 332.855 40.6296 332.737 40.6052 332.634C40.5661 332.469 40.5357 332.341 40.4998 332.213C39.9778 330.344 39.7416 328.446 39.7474 326.503C39.762 319.743 39.7679 312.98 39.7474 306.217C39.7299 300.54 40.9781 295.188 43.7457 290.221C46.5599 285.171 50.4503 281.228 55.6501 278.664ZM72.9905 270.486C72.9613 272.027 74.1308 273.206 75.7056 273.221C76.8488 273.233 78.0007 272.402 78.2078 271.373C78.2399 271.211 78.0561 270.88 77.9103 270.836C76.9467 270.541 75.9766 270.275 75.0061 270.008C74.6696 269.916 74.333 269.823 73.9966 269.729C73.1801 269.501 73.0051 269.633 72.9905 270.486ZM83.5242 271.581C83.8159 272.546 84.9532 273.259 86.0235 273.221C87.6916 273.159 88.8903 271.786 88.6569 270.225C88.5811 269.712 88.3857 269.504 87.8375 269.668C87.2565 269.842 86.6718 270.005 86.0871 270.168C85.301 270.388 84.5147 270.608 83.7371 270.853C83.5971 270.897 83.4601 271.37 83.5242 271.581Z" fill="#87827F"/>
<path d="M72.9905 270.486C72.9614 272.027 74.1308 273.206 75.7056 273.221C76.8488 273.233 78.0008 272.402 78.2078 271.373C78.2399 271.211 78.0562 270.88 77.9104 270.836C76.6126 270.44 75.3032 270.093 73.9967 269.729C73.1801 269.501 73.0051 269.633 72.9905 270.486Z" fill="#FFD87A"/>
<path d="M83.5243 271.581C83.8159 272.546 84.9533 273.259 86.0236 273.221C87.6917 273.159 88.8903 271.786 88.657 270.225C88.5812 269.712 88.3858 269.504 87.8375 269.668C86.4756 270.076 85.0932 270.425 83.7372 270.853C83.5972 270.897 83.4601 271.37 83.5243 271.581Z" fill="#FFD87A"/>
<path fill-rule="evenodd" clip-rule="evenodd" d="M64.0412 276.225C61.055 276.549 58.2814 277.366 55.6501 278.664C50.4503 281.228 46.5599 285.171 43.7457 290.221C40.9781 295.188 39.7299 300.54 39.7474 306.217C39.7678 312.98 39.762 319.743 39.7474 326.503C39.7416 328.446 39.9778 330.344 40.4998 332.213C40.5357 332.341 40.566 332.469 40.6051 332.634L40.6051 332.634C40.6296 332.737 40.6575 332.855 40.6923 332.996C40.0396 332.952 39.3947 332.917 38.756 332.882L38.7558 332.882L38.7555 332.882C38.6751 332.877 38.5948 332.873 38.5146 332.869C40.0758 333.814 41.675 334.5 43 334.5C47 334.5 56.3571 332 55.5 324C54.5357 315 56.5 299 58 294C60.2988 286.337 64.5 281.167 67 281C66.2437 280.149 65.0263 278.43 64.0412 276.225Z" fill="#756C66"/>
<path fill-rule="evenodd" clip-rule="evenodd" d="M88 260C91.866 260 95 258.657 95 257C95 256.624 94.8381 256.263 94.5425 255.931C94.2572 255.955 93.97 256.055 93.6847 256.204C93.4232 256.339 93.1618 256.475 92.9004 256.611L92.1595 256.996L92.1554 256.998C90.2655 257.98 88.3752 258.962 86.4774 259.929C86.9676 259.976 87.4771 260 88 260Z" fill="#ADA39C"/>
<ellipse cx="81.5" cy="275" rx="1.5" ry="1" fill="#C4C4C4"/>
<path d="M89 276.5C89.5 277.5 87.9558 279.152 86 278.5C84.5 278 84 276.5 84 276C84 275.448 84.8954 275 86 275C87.1046 275 88.5 275.5 89 276.5Z" fill="#9B9490"/>
<path d="M72.1305 276.645C71.4435 277.741 73.5651 279.552 76.2522 278.838C78.313 278.289 79 276.645 79 276.096C79 275.491 77.7698 275 76.2522 275C74.7346 275 72.8174 275.548 72.1305 276.645Z" fill="#9B9490"/>
<path d="M148.987 48.4574C150.548 48.7117 151.782 49.3796 152.413 50.7966C152.689 51.417 152.847 52.1325 152.878 52.8116C152.945 54.2732 153.686 55.2318 154.909 55.9221C157.244 57.244 159.684 58.4178 161.887 59.9326C169.283 65.0134 174.391 71.8661 177.38 80.2783C177.535 80.7171 177.692 81.1559 177.836 81.5974C178.422 83.3833 177.388 85.0266 175.506 85.1467C169.17 85.5464 162.834 85.9069 156.495 86.2619C156.027 86.287 155.754 86.4128 155.495 86.8208C151.999 92.3795 143.772 92.3963 140.236 86.8515C139.966 86.4267 139.684 86.2786 139.183 86.2507C132.962 85.9041 126.741 85.5408 120.524 85.1523C118.645 85.035 117.58 83.4028 118.157 81.6226C121.467 71.4134 127.747 63.535 137.019 58.021C138.261 57.2832 139.588 56.6795 140.882 56.0311C142.265 55.3352 143.068 54.3123 143.118 52.697C143.192 50.3857 144.282 49.2203 146.995 48.4154C146.995 48.1471 146.995 47.8537 146.995 47.5603C146.995 35.2829 146.995 13.9669 146.998 1.68958C146.998 1.34303 146.936 0.926615 147.105 0.669499C147.302 0.364872 147.697 0.0630395 148.046 0.00993937C148.516 -0.0627239 148.885 0.26985 148.959 0.784083C149.001 1.08033 148.987 1.38775 148.987 1.68958C148.987 13.9669 148.987 35.2829 148.987 47.5603C148.987 47.8369 148.987 48.1136 148.987 48.4574ZM153.342 86.4016C149.635 86.4016 146.02 86.4016 142.349 86.4016C145.124 89.8978 150.489 89.9006 153.342 86.4016Z" fill="#E1AD4F"/>
</svg>
