<svg width="302" height="326" viewBox="0 0 302 326" fill="none" xmlns="http://www.w3.org/2000/svg">
<path fill-rule="evenodd" clip-rule="evenodd" d="M195.947 38.649C177.262 15.1017 148.395 0 116 0C59.667 0 14 45.667 14 102C14 124.899 21.5457 146.035 34.2863 163.058C24.581 178.235 19 196.005 19 215C19 243.188 31.2903 268.678 51.1108 287H265.58C266.508 283.152 267 279.133 267 275C267 271.043 266.549 267.192 265.697 263.494C287.973 243.624 302 214.7 302 182.5C302 152.696 289.983 125.698 270.53 106.089C282.387 96.7502 290 82.2642 290 66C290 37.8335 267.167 15 239 15C220.897 15 204.998 24.4317 195.947 38.649Z" fill="#092B4C"/>
<path d="M35.679 287C33.211 287 30.8999 287 28.4737 287C28.4737 286.602 28.4772 286.241 28.4737 285.884C28.3866 276.542 28.2925 267.195 28.2193 257.853C28.2158 257.19 28.0519 256.707 27.5953 256.227C25.2807 253.799 22.9905 251.34 20.7247 248.859C20.3796 248.484 20.1042 247.967 19.9543 247.465C19.5151 245.992 19.1212 244.501 18.7726 243.002C18.6436 242.448 18.3717 242.276 17.8976 242.18C12.5364 241.075 9.11326 237.706 7.71892 232.075C7.43656 230.937 7.47142 229.713 7.34593 228.396C2.92238 227.537 0.0953469 224.744 0.00122875 219.526C-0.0615167 216.037 2.28098 212.262 6.52327 211.481C6.52327 209.704 6.50235 207.952 6.52676 206.2C6.65922 195.898 13.007 186.473 22.4815 183.197C31.9422 179.928 42.4416 183.487 48.2351 192.279C48.5802 192.803 48.9462 192.975 49.5074 193.008C55.8691 193.395 60.7807 196.515 64.2038 202.191C68.1881 208.8 67.8709 217.492 63.531 223.837C60.8085 227.82 57.1902 230.386 52.6795 231.465C52.0521 231.613 51.7802 231.855 51.6721 232.558C51.0063 236.932 48.8137 240.168 45.1989 242.347C44.8677 242.548 44.5854 243.069 44.5087 243.489C43.8359 247.16 43.2294 250.846 42.5601 254.516C42.4869 254.925 42.2463 255.379 41.95 255.647C40.0712 257.347 38.1679 259.017 36.2402 260.657C35.801 261.032 35.6685 261.419 35.6685 261.992C35.6825 269.944 35.679 277.895 35.679 285.847C35.679 286.208 35.679 286.572 35.679 287ZM28.3413 252.121C28.4179 251.972 28.4667 251.924 28.4667 251.872C28.4737 247.792 28.4842 243.712 28.4702 239.628C28.4702 239.342 28.2959 239.056 28.2471 238.911C26.9818 239.744 25.8698 240.67 24.6184 241.254C23.3495 241.849 21.9412 242.105 20.5434 242.529C21.1848 244.088 21.8541 245.724 22.5408 247.357C22.6175 247.543 22.7709 247.71 22.9242 247.837C24.7055 249.254 26.5007 250.667 28.3413 252.121ZM35.7557 244.311C35.7557 247.971 35.7557 251.835 35.7557 255.822C37.2441 255.078 38.6385 254.412 40.0015 253.68C40.2245 253.561 40.3919 253.174 40.4546 252.88C41.0821 250.057 41.6851 247.227 42.2882 244.396C42.337 244.173 42.3335 243.939 42.3335 243.92C40.1339 244.051 37.9866 244.181 35.7557 244.311Z" fill="#4A6E4D"/>
<path d="M18 242.638C18.2654 242.756 18.433 242.952 18.5273 243.347C18.8765 244.834 19.2676 246.314 19.7111 247.775C19.8612 248.273 20.1371 248.786 20.4828 249.159C22.7526 251.62 25.0468 254.059 27.3655 256.469C27.8229 256.945 27.9871 257.424 27.9906 258.081C28.0639 267.351 28.1582 276.624 28.2455 285.893C28.249 286.251 28.2455 286.609 28.2455 287C30.6759 287 32.9911 287 35.4634 287C35.4634 286.576 35.4634 286.214 35.4634 285.852C35.4634 277.963 35.4669 270.074 35.4529 262.185C35.4529 261.616 35.5856 261.232 36.0256 260.86C37.9567 259.236 39.8633 257.576 41.7455 255.889C42.0423 255.624 42.2832 255.173 42.3566 254.768C43.0235 251.122 43.6346 247.469 44.3086 243.827C44.3854 243.41 44.6683 242.893 45 242.694L42.1331 244.258C42.1331 244.277 42.1331 244.509 42.0877 244.731C41.4836 247.539 40.8795 250.347 40.2509 253.148C40.1846 253.439 40.0204 253.823 39.7969 253.941C38.4316 254.668 37.0383 255.328 35.5437 256.066C35.5437 252.111 35.5437 248.277 35.5437 244.646C35.5437 244.646 34.105 244.494 31.4092 242.502C28.7134 240.509 28.242 240 28.242 240C28.2559 244.048 28.2455 248.096 28.2385 252.148C28.2385 252.196 28.1896 252.247 28.1128 252.395C26.269 250.952 24.4741 249.55 22.6827 248.14C22.5291 248.018 22.3755 247.849 22.2986 247.664C21.6107 246.048 20.9402 244.421 20.2977 242.875C20.2977 242.878 20.158 243.277 18 242.638Z" fill="#6F302A"/>
<path fill-rule="evenodd" clip-rule="evenodd" d="M296 287C289.523 309.376 265.34 326 236.497 326C215.647 326 197.232 317.314 186.181 304.047C165.752 311.581 140.895 316 114.082 316C70.8469 316 32.6971 304.51 10 287H296Z" fill="#223C51"/>
<path d="M275.95 287C201.212 287 126.889 287 52.0252 287C52.0252 285.902 52.0252 284.805 52.0252 283.707C52.0252 238.165 52.063 192.623 52 147.068C51.9874 137.582 55.7388 130.378 63.657 125.117C92.1825 106.169 120.62 87.0942 149.108 68.0825C159.292 61.2828 168.708 61.308 178.955 68.1456C207.267 87.0437 235.54 105.992 263.877 124.852C272.035 130.277 276.025 137.607 276 147.535C275.874 192.762 275.95 238.001 275.95 283.228C275.95 284.363 275.95 285.499 275.95 287ZM145.419 264.33C181.498 264.33 217.4 264.33 253.29 264.33C253.29 240.676 253.29 217.337 253.29 193.923C217.224 193.923 181.372 193.923 145.419 193.923C145.419 217.501 145.419 240.852 145.419 264.33ZM182.543 171.013C182.618 170.268 182.706 169.852 182.706 169.448C182.719 146.16 182.744 122.884 182.644 99.5962C182.644 98.5238 181.712 97.1109 180.793 96.4549C176.098 93.1244 171.213 90.0714 166.505 86.7535C164.68 85.4668 163.32 85.5046 161.457 86.7535C133.246 105.702 104.985 124.613 76.6987 143.46C74.9741 144.608 74.4076 145.87 74.4327 147.838C74.5335 153.502 74.4705 159.167 74.4705 164.831C74.4705 166.875 74.4705 168.919 74.4705 171.013C110.776 171.013 146.527 171.013 182.543 171.013ZM74.6593 193.847C74.6593 217.526 74.6593 240.878 74.6593 264.431C90.8104 264.431 106.747 264.431 122.798 264.431C122.798 240.789 122.798 217.362 122.798 193.847C106.697 193.847 90.823 193.847 74.6593 193.847ZM253.517 171C253.517 163.052 253.454 155.395 253.555 147.75C253.58 145.731 252.887 144.533 251.201 143.423C236.636 133.784 222.121 124.032 207.594 114.331C206.851 113.839 206.058 113.448 205.177 112.943C205.177 132.472 205.177 151.711 205.177 171.013C221.278 171 237.164 171 253.517 171Z" fill="#1D4D67"/>
<path fill-rule="evenodd" clip-rule="evenodd" d="M234 212.75C216.189 212.75 201.75 227.189 201.75 245C201.75 245.414 201.414 245.75 201 245.75C200.586 245.75 200.25 245.414 200.25 245C200.25 226.36 215.36 211.25 234 211.25C234.414 211.25 234.75 211.586 234.75 212C234.75 212.414 234.414 212.75 234 212.75Z" fill="white"/>
<path fill-rule="evenodd" clip-rule="evenodd" d="M80 179.25C93.3929 179.25 104.25 168.393 104.25 155C104.25 154.586 104.586 154.25 105 154.25C105.414 154.25 105.75 154.586 105.75 155C105.75 169.221 94.2213 180.75 80 180.75C79.5858 180.75 79.25 180.414 79.25 180C79.25 179.586 79.5858 179.25 80 179.25Z" fill="white"/>
<path fill-rule="evenodd" clip-rule="evenodd" d="M234 189.75C203.486 189.75 178.75 214.486 178.75 245C178.75 245.414 178.414 245.75 178 245.75C177.586 245.75 177.25 245.414 177.25 245C177.25 213.658 202.658 188.25 234 188.25C234.414 188.25 234.75 188.586 234.75 189C234.75 189.414 234.414 189.75 234 189.75Z" fill="white"/>
<path fill-rule="evenodd" clip-rule="evenodd" d="M80 197.25C103.334 197.25 122.25 178.334 122.25 155C122.25 154.586 122.586 154.25 123 154.25C123.414 154.25 123.75 154.586 123.75 155C123.75 179.162 104.162 198.75 80 198.75C79.5858 198.75 79.25 198.414 79.25 198C79.25 197.586 79.5858 197.25 80 197.25Z" fill="white"/>
<path fill-rule="evenodd" clip-rule="evenodd" d="M234 165.75C190.231 165.75 154.75 201.231 154.75 245C154.75 245.414 154.414 245.75 154 245.75C153.586 245.75 153.25 245.414 153.25 245C153.25 200.403 189.403 164.25 234 164.25C234.414 164.25 234.75 164.586 234.75 165C234.75 165.414 234.414 165.75 234 165.75Z" fill="white"/>
<path fill-rule="evenodd" clip-rule="evenodd" d="M80 214.25C112.723 214.25 139.25 187.723 139.25 155C139.25 154.586 139.586 154.25 140 154.25C140.414 154.25 140.75 154.586 140.75 155C140.75 188.551 113.551 215.75 80 215.75C79.5858 215.75 79.25 215.414 79.25 215C79.25 214.586 79.5858 214.25 80 214.25Z" fill="white"/>
<path d="M235.559 53C226.777 52.5743 220.288 48.7403 216.272 41.0383C214.198 37.0617 213.592 32.7635 214.259 28.309C215.12 22.5569 217.903 17.9144 222.443 14.3658C225.396 12.0582 228.779 10.6541 232.512 10.2102C233.828 10.054 235.164 10.0472 236.492 10.0019C237.171 9.97698 237.77 10.1944 238.056 10.8738C238.327 11.5169 238.018 12.04 237.615 12.5201C234.599 16.1186 233.497 20.2696 234.353 24.8577C235.173 29.2601 237.594 32.6457 241.487 34.8537C245.411 37.0798 249.545 37.3742 253.796 35.8547C254.38 35.6463 254.957 35.4651 255.491 35.9317C255.955 36.337 256.108 36.8443 255.924 37.4603C254.936 40.7643 253.273 43.6743 250.922 46.1881C247.764 49.5623 243.899 51.6616 239.391 52.5403C238.07 52.7962 236.715 52.8664 235.559 53Z" fill="#E1AD4F"/>
<path d="M103.648 58.4922C104.946 55.9631 106.697 53.9665 108.988 52.505C113.244 49.7957 117.784 49.3104 122.528 50.9216C125.898 52.0669 128.656 54.0663 130.524 57.2055C132.091 59.84 132.662 62.7407 132.39 65.7689C132.205 67.8183 131.754 69.8427 131.441 71.7756C132.678 72.4356 134.071 73.0096 135.284 73.8554C139.07 76.4954 140.92 81.9336 139.549 86.0766C138.559 89.0716 136.043 90.9823 132.945 90.9851C117.194 90.9989 101.44 91.0156 85.6883 90.9712C82.7426 90.9629 80.5802 89.3129 78.9374 86.928C75.2518 81.5786 77.164 74.6236 81.8178 71.501C82.4516 71.0767 83.186 70.7828 83.9067 70.5304C84.3066 70.389 84.4181 70.2171 84.4344 69.8149C84.5405 67.1167 85.1797 64.5682 86.6403 62.2887C89.1916 58.3092 92.8854 56.5704 97.4739 56.6592C99.6635 56.7063 101.706 57.3303 103.648 58.4922Z" fill="#68B4B7"/>
<path d="M73.6693 80C71.3867 79.2344 69.7751 77.7797 68.567 75.8246C65.3545 70.6321 67.2716 63.3915 72.5812 60.6845C72.903 60.5204 73.2439 60.3236 73.5875 60.2907C74.3811 60.2169 74.4329 59.7439 74.4765 59.0904C74.7656 54.658 76.4318 50.942 80.2388 48.4291C83.0558 46.5697 86.1946 46.1623 89.4398 46.7639C90.8879 47.0318 92.2705 47.6553 93.7213 48.1311C97.0647 42.5256 102.017 39.5014 108.756 40.0674C113.97 40.5049 118.142 42.9002 121 47.6252C120.266 47.5131 119.683 47.3982 119.097 47.3408C112.429 46.6982 106.958 48.9896 102.682 54.1384C102.331 54.5623 102.061 54.6689 101.502 54.5048C96.882 53.1431 92.4314 53.4877 88.3027 56.099C84.8093 58.3083 82.794 61.606 81.7223 65.538C81.6377 65.8442 81.4932 66.1559 81.5014 66.4622C81.5287 67.6817 80.8169 68.2559 79.857 68.8794C76.0527 71.3375 74.1574 74.977 73.7157 79.4367C73.6966 79.5898 73.6884 79.7457 73.6693 80Z" fill="#458489"/>
<path fill-rule="evenodd" clip-rule="evenodd" d="M213.709 233.266C213.712 233.118 213.833 233 213.981 233C214.13 233 214.252 233.121 214.252 233.271V253.102C214.252 253.576 213.867 253.961 213.393 253.961C213.358 253.961 213.331 253.933 213.331 253.898L213.709 233.266ZM245.822 233.266C245.82 233.118 245.699 233 245.551 233C245.401 233 245.28 233.121 245.28 233.271V253.102C245.28 253.576 245.665 253.961 246.139 253.961C246.173 253.961 246.201 253.933 246.2 253.898L245.822 233.266ZM244.94 250.006H245.28V251.588H244.881C244.418 254.064 242.245 255.938 239.634 255.938H219.898C217.287 255.938 215.114 254.064 214.65 251.588H214.252V250.006H214.592C214.887 247.336 217.15 245.26 219.898 245.26H239.634C242.382 245.26 244.645 247.336 244.94 250.006Z" fill="white"/>
<path d="M213.709 233.266L218.209 233.349L213.709 233.266ZM213.331 253.898L208.832 253.816V253.816L213.331 253.898ZM245.822 233.266L241.323 233.349V233.349L245.822 233.266ZM246.2 253.898L241.701 253.981L241.701 253.981L246.2 253.898ZM245.28 250.006H249.78V245.506H245.28V250.006ZM244.94 250.006L240.467 250.5L240.91 254.506H244.94V250.006ZM245.28 251.588V256.088H249.78V251.588H245.28ZM244.881 251.588V247.088H241.146L240.458 250.76L244.881 251.588ZM214.65 251.588L219.074 250.76L218.386 247.088H214.65V251.588ZM214.252 251.588H209.752V256.088H214.252V251.588ZM214.252 250.006V245.506H209.752V250.006H214.252ZM214.592 250.006V254.506H218.622L219.064 250.5L214.592 250.006ZM213.981 228.5C211.38 228.5 209.258 230.583 209.21 233.184L218.209 233.349C218.166 235.654 216.286 237.5 213.981 237.5V228.5ZM218.752 233.271C218.752 230.636 216.616 228.5 213.981 228.5V237.5C211.645 237.5 209.752 235.607 209.752 233.271H218.752ZM218.752 253.102V233.271H209.752V253.102H218.752ZM213.393 258.461C216.353 258.461 218.752 256.061 218.752 253.102H209.752C209.752 251.091 211.382 249.461 213.393 249.461V258.461ZM208.832 253.816C208.785 256.367 210.841 258.461 213.393 258.461V249.461C215.876 249.461 217.876 251.498 217.831 253.981L208.832 253.816ZM209.21 233.184L208.832 253.816L217.831 253.981L218.209 233.349L209.21 233.184ZM245.551 237.5C243.246 237.5 241.365 235.654 241.323 233.349L250.322 233.184C250.274 230.583 248.152 228.5 245.551 228.5V237.5ZM249.78 233.271C249.78 235.607 247.887 237.5 245.551 237.5V228.5C242.916 228.5 240.78 230.636 240.78 233.271H249.78ZM249.78 253.102V233.271H240.78V253.102H249.78ZM246.139 249.461C248.15 249.461 249.78 251.091 249.78 253.102H240.78C240.78 256.061 243.179 258.461 246.139 258.461V249.461ZM241.701 253.981C241.656 251.498 243.656 249.461 246.139 249.461V258.461C248.691 258.461 250.747 256.367 250.7 253.816L241.701 253.981ZM241.323 233.349L241.701 253.981L250.7 253.816L250.322 233.184L241.323 233.349ZM245.28 245.506H244.94V254.506H245.28V245.506ZM249.78 251.588V250.006H240.78V251.588H249.78ZM244.881 256.088H245.28V247.088H244.881V256.088ZM240.458 250.76C240.386 251.146 240.039 251.438 239.634 251.438V260.438C244.45 260.438 248.45 256.982 249.304 252.416L240.458 250.76ZM239.634 251.438H219.898V260.438H239.634V251.438ZM219.898 251.438C219.493 251.438 219.146 251.146 219.074 250.76L210.227 252.416C211.082 256.982 215.082 260.438 219.898 260.438V251.438ZM214.252 256.088H214.65V247.088H214.252V256.088ZM209.752 250.006V251.588H218.752V250.006H209.752ZM214.592 245.506H214.252V254.506H214.592V245.506ZM219.064 250.5C219.11 250.086 219.469 249.76 219.898 249.76V240.76C214.831 240.76 210.663 244.587 210.119 249.512L219.064 250.5ZM219.898 249.76H239.634V240.76H219.898V249.76ZM239.634 249.76C240.063 249.76 240.422 250.086 240.467 250.5L249.413 249.512C248.869 244.587 244.701 240.76 239.634 240.76V249.76Z" fill="white" fill-opacity="0.3"/>
<path fill-rule="evenodd" clip-rule="evenodd" d="M81.3668 133.258C81.3694 133.115 81.4861 133 81.6292 133C81.7742 133 81.8917 133.118 81.8917 133.263V150.605H82.4862V149.238C82.4862 146.611 84.6158 144.481 87.2428 144.481C89.8698 144.481 91.9994 146.611 91.9994 149.238V159.243C91.9994 161.87 89.8698 164 87.2428 164C84.6158 164 82.4862 161.87 82.4862 159.243V152.136H81.8917V152.453C81.8917 152.912 81.5195 153.284 81.0604 153.284C81.0271 153.284 81.0004 153.257 81.001 153.223L81.3668 133.258ZM92.8566 133C92.9997 133 93.1165 133.115 93.1191 133.258L93.4849 153.223C93.4855 153.257 93.4587 153.284 93.4255 153.284C92.9663 153.284 92.5941 152.912 92.5941 152.453V152.136H91.9995V150.605H92.5941V133.263C92.5941 133.118 92.7116 133 92.8566 133Z" fill="white"/>
<path d="M81.3668 133.258L76.8675 133.175V133.175L81.3668 133.258ZM81.8917 150.605H77.3917V155.105H81.8917V150.605ZM82.4862 150.605V155.105H86.9862V150.605H82.4862ZM82.4862 152.136H86.9862V147.636H82.4862V152.136ZM81.8917 152.136V147.636H77.3917V152.136H81.8917ZM81.001 153.223L85.5002 153.306L85.5002 153.306L81.001 153.223ZM93.1191 133.258L97.6183 133.175V133.175L93.1191 133.258ZM93.4849 153.223L97.9841 153.141V153.141L93.4849 153.223ZM92.5941 152.136H97.0941V147.636H92.5941V152.136ZM91.9995 152.136H87.4995V156.636H91.9995V152.136ZM91.9995 150.605V146.105H87.4995V150.605H91.9995ZM92.5941 150.605V155.105H97.0941V150.605H92.5941ZM81.6292 128.5C79.033 128.5 76.9151 130.579 76.8675 133.175L85.866 133.34C85.8237 135.65 83.9393 137.5 81.6292 137.5V128.5ZM86.3917 133.263C86.3917 130.632 84.2595 128.5 81.6292 128.5V137.5C79.2889 137.5 77.3917 135.603 77.3917 133.263H86.3917ZM86.3917 150.605V133.263H77.3917V150.605H86.3917ZM82.4862 146.105H81.8917V155.105H82.4862V146.105ZM77.9862 149.238V150.605H86.9862V149.238H77.9862ZM87.2428 139.981C82.1305 139.981 77.9862 144.126 77.9862 149.238H86.9862C86.9862 149.096 87.1011 148.981 87.2428 148.981V139.981ZM96.4994 149.238C96.4994 144.126 92.3551 139.981 87.2428 139.981V148.981C87.3845 148.981 87.4994 149.096 87.4994 149.238H96.4994ZM96.4994 159.243V149.238H87.4994V159.243H96.4994ZM87.2428 168.5C92.3551 168.5 96.4994 164.356 96.4994 159.243H87.4994C87.4994 159.385 87.3845 159.5 87.2428 159.5V168.5ZM77.9862 159.243C77.9862 164.356 82.1305 168.5 87.2428 168.5V159.5C87.1011 159.5 86.9862 159.385 86.9862 159.243H77.9862ZM77.9862 152.136V159.243H86.9862V152.136H77.9862ZM81.8917 156.636H82.4862V147.636H81.8917V156.636ZM86.3917 152.453V152.136H77.3917V152.453H86.3917ZM81.0604 157.784C84.0048 157.784 86.3917 155.397 86.3917 152.453H77.3917C77.3917 150.426 79.0342 148.784 81.0604 148.784V157.784ZM76.5017 153.141C76.455 155.691 78.5095 157.784 81.0604 157.784V148.784C83.5447 148.784 85.5457 150.822 85.5002 153.306L76.5017 153.141ZM76.8675 133.175L76.5017 153.141L85.5002 153.306L85.866 133.34L76.8675 133.175ZM97.6183 133.175C97.5708 130.579 95.4529 128.5 92.8566 128.5V137.5C90.5466 137.5 88.6622 135.65 88.6198 133.34L97.6183 133.175ZM97.9841 153.141L97.6183 133.175L88.6198 133.34L88.9856 153.306L97.9841 153.141ZM93.4255 157.784C95.9763 157.784 98.0308 155.691 97.9841 153.141L88.9856 153.306C88.9401 150.822 90.9411 148.784 93.4255 148.784V157.784ZM88.0941 152.453C88.0941 155.397 90.481 157.784 93.4255 157.784V148.784C95.4516 148.784 97.0941 150.426 97.0941 152.453H88.0941ZM88.0941 152.136V152.453H97.0941V152.136H88.0941ZM91.9995 156.636H92.5941V147.636H91.9995V156.636ZM87.4995 150.605V152.136H96.4995V150.605H87.4995ZM92.5941 146.105H91.9995V155.105H92.5941V146.105ZM88.0941 133.263V150.605H97.0941V133.263H88.0941ZM92.8566 128.5C90.2263 128.5 88.0941 130.632 88.0941 133.263H97.0941C97.0941 135.603 95.1969 137.5 92.8566 137.5V128.5Z" fill="white" fill-opacity="0.3"/>
</svg>
