<svg width="320" height="418" viewBox="0 0 320 418" fill="none" xmlns="http://www.w3.org/2000/svg">
<path fill-rule="evenodd" clip-rule="evenodd" d="M54.5763 245.84C55.5488 246.606 56.5509 247.319 57.5807 247.981C32.3154 303.27 31.9529 355.283 61.0516 378.187C85.6283 397.532 125.451 391.571 166.038 366.63C193.512 376.542 222.133 375.764 246.084 361.936C289.156 337.069 303.229 278.022 283.278 220.951C300.207 173.303 297.419 130.592 271.807 110.432C249.883 93.1754 215.827 96.0558 179.92 114.583C177.227 109.151 173.526 104.456 168.794 100.732C143.08 80.4921 96.6664 96.568 65.1261 136.639C33.5858 176.709 28.8625 225.6 54.5763 245.84Z" fill="#092B4C"/>
<path d="M235.613 271.126C171.823 352.169 84.8844 390.14 41.4306 355.936C-2.02323 321.733 14.4627 228.308 78.253 147.265C142.043 66.2223 228.982 28.2515 272.436 62.4548C315.889 96.6581 299.403 190.084 235.613 271.126Z" fill="#FFD779" fill-opacity="0.1"/>
<path d="M91.8225 235.671C92.3281 234.648 93.3707 234 94.5123 234H304.682C306.774 234 308.223 236.086 307.494 238.047L288.137 290.047C287.7 291.221 286.579 292 285.326 292H68.8278C66.604 292 65.1532 289.665 66.138 287.671L91.8225 235.671Z" fill="#2D4F60"/>
<path opacity="0.2" d="M101.823 265.671C102.328 264.648 103.371 264 104.512 264H164.682C166.774 264 168.223 266.086 167.494 268.047L148.137 320.047C147.7 321.221 146.579 322 145.326 322H78.8278C76.604 322 75.1532 319.665 76.138 317.671L101.823 265.671Z" fill="#BC9343"/>
<path opacity="0.2" d="M193.823 186.671C194.328 185.648 195.371 185 196.512 185H256.682C258.774 185 260.223 187.086 259.494 189.047L240.137 241.047C239.7 242.221 238.579 243 237.326 243H170.828C168.604 243 167.153 240.665 168.138 238.671L193.823 186.671Z" fill="#BC9343"/>
<path d="M83.5211 242.629C90.0728 242.629 96.6245 242.638 103.176 242.623C104.885 242.621 106.361 243.064 107.327 244.578C109.015 247.223 107.36 250.576 104.234 250.864C103.815 250.903 103.393 250.9 102.974 250.9C92.9609 250.903 82.9477 250.9 72.9344 250.906C72.5898 250.906 72.2392 250.918 71.9064 250.989C71.2111 251.135 70.8575 251.614 70.8248 252.304C70.7951 252.935 71.2438 253.453 71.9301 253.593C72.2421 253.658 72.569 253.667 72.8869 253.667C77.5845 253.67 82.2821 253.673 86.9797 253.667C88.6258 253.664 89.9718 254.214 90.8602 255.672C92.3964 258.198 90.8216 261.485 87.883 261.863C87.4195 261.923 86.947 261.938 86.4776 261.941C81.9285 261.947 77.3795 261.944 72.8304 261.944C71.4845 261.944 70.7921 262.434 70.8159 263.363C70.8397 264.243 71.5171 264.684 72.8483 264.684C76.6812 264.684 80.5142 264.672 84.3442 264.69C87.0094 264.701 88.9794 266.772 88.706 269.227C88.4594 271.449 86.6202 272.972 84.1213 272.978C79.4475 272.99 74.7766 272.981 70.1028 272.984C69.8324 272.984 69.5561 272.978 69.2887 273.008C68.6112 273.082 68.1239 273.621 68.0942 274.296C68.0675 274.948 68.4745 275.507 69.1223 275.647C69.4075 275.709 69.7136 275.7 70.0077 275.7C72.9018 275.703 75.7928 275.697 78.6869 275.703C80.4756 275.709 81.9315 276.352 82.7724 278.012C84.1035 280.642 82.3148 283.688 79.296 283.971C79.0494 283.995 78.8027 283.995 78.5561 283.995C70.0998 283.989 61.6436 284.028 53.1902 283.956C49.2117 283.92 45.2331 283.685 41.3081 282.957C40.2681 282.763 39.1866 282.585 38.2387 282.15C36.2658 281.249 35.1932 279.615 35.0327 277.432C34.9881 276.816 35.0149 276.194 35.0149 275.575C35.0149 267.409 35.0268 259.239 35 251.073C34.9971 250.052 35.214 249.124 35.6002 248.202C38.0783 242.287 42.1608 237.685 47.42 234.159C50.3081 232.223 53.4042 230.592 56.426 228.861C60.8235 226.341 65.2358 223.854 69.6452 221.355C71.0774 220.543 72.153 221.164 72.2689 222.818C72.5779 227.213 70.7535 230.464 67.0335 232.717C65.1526 233.856 63.2659 234.992 61.3999 236.156C59.7954 237.155 59.1536 238.848 59.8311 240.342C60.4372 241.68 61.4831 242.472 62.9747 242.6C63.2956 242.626 63.6165 242.623 63.9374 242.623C70.4653 242.629 76.9932 242.629 83.5211 242.629Z" fill="#DDAC88"/>
<rect x="120.901" y="148.407" width="82.5679" height="131.593" rx="25" fill="white"/>
<circle cx="163.475" cy="242.586" r="5.70062" fill="white" stroke="#00C3F3" stroke-width="1.5"/>
<circle cx="163.475" cy="227.105" r="1.29012" fill="#C4C4C4"/>
<circle cx="163.475" cy="219.364" r="1.29012" fill="#00C3F3"/>
<circle cx="163.475" cy="211.623" r="1.29012" fill="#00C3F3"/>
<path d="M111.202 71.9764C111.215 71.4335 111.659 71 112.202 71H114.741C115.293 71 115.741 71.4477 115.741 72V200.54C115.741 204.524 112.511 207.753 108.528 207.753C108.238 207.753 108.006 207.515 108.012 207.226L111.202 71.9764Z" fill="white"/>
<path d="M213.168 71.9764C213.155 71.4335 212.711 71 212.168 71H209.63C209.077 71 208.63 71.4477 208.63 72V200.54C208.63 204.524 211.859 207.753 215.843 207.753C216.132 207.753 216.365 207.515 216.358 207.226L213.168 71.9764Z" fill="white"/>
<rect x="115.741" y="189.691" width="5.16049" height="10.321" fill="white"/>
<rect width="5.16049" height="10.321" transform="matrix(-1 0 0 1 208.63 189.691)" fill="white"/>
<path d="M173.365 185.496C173.381 186.821 173.397 188.147 173.414 189.485C172.686 189.485 171.982 189.485 171.268 189.485C171.268 187.346 171.268 185.208 171.268 183.048C171.323 183.048 171.376 183.048 171.428 183.048C172.127 183.048 172.825 183.051 173.523 183.044C173.644 183.043 173.712 183.083 173.776 183.181C174.45 184.204 175.129 185.224 175.805 186.244C175.82 186.267 175.836 186.289 175.86 186.323C175.991 186.118 176.116 185.918 176.247 185.723C176.824 184.86 177.403 183.997 177.986 183.138C178.017 183.092 178.093 183.051 178.148 183.05C178.869 183.044 179.59 183.047 180.311 183.045C180.392 183.045 180.436 183.057 180.436 183.156C180.434 185.241 180.435 187.326 180.434 189.411C180.434 189.433 180.43 189.455 180.426 189.486C179.716 189.486 179.011 189.486 178.274 189.486C178.29 188.152 178.305 186.821 178.321 185.494C178.316 185.5 178.293 185.522 178.276 185.547C177.768 186.297 177.262 187.049 176.751 187.797C176.535 188.112 176.31 188.422 176.087 188.733C175.999 188.855 175.668 188.856 175.582 188.734C174.966 187.864 174.35 186.995 173.74 186.121C173.601 185.921 173.488 185.702 173.365 185.496Z" fill="#0A1634"/>
<path d="M165.949 183.011C166.784 183.011 167.619 183.005 168.454 183.015C168.703 183.018 168.954 183.054 169.2 183.099C169.726 183.193 169.999 183.535 170.081 184.045C170.106 184.197 170.127 184.352 170.128 184.506C170.131 185.699 170.135 186.891 170.123 188.083C170.121 188.311 170.065 188.543 170.007 188.765C169.914 189.118 169.669 189.341 169.317 189.414C169.002 189.48 168.679 189.538 168.359 189.541C166.753 189.554 165.146 189.552 163.541 189.542C163.247 189.541 162.95 189.493 162.66 189.437C162.219 189.352 161.937 189.079 161.85 188.635C161.804 188.404 161.771 188.168 161.769 187.933C161.761 186.827 161.761 185.721 161.769 184.615C161.771 184.38 161.805 184.144 161.85 183.913C161.935 183.474 162.211 183.194 162.647 183.116C163.012 183.05 163.388 183.017 163.76 183.009C164.489 182.993 165.22 183.004 165.95 183.004C165.949 183.007 165.949 183.009 165.949 183.011ZM165.95 184.607C165.366 184.607 164.782 184.606 164.198 184.607C164.018 184.607 163.99 184.635 163.99 184.812C163.99 185.763 163.99 186.714 163.99 187.666C163.99 187.854 164.014 187.878 164.204 187.878C165.367 187.878 166.531 187.878 167.694 187.878C167.885 187.878 167.905 187.857 167.905 187.665C167.905 186.714 167.905 185.763 167.905 184.812C167.905 184.627 167.886 184.607 167.702 184.607C167.118 184.606 166.534 184.607 165.95 184.607Z" fill="#0A1634"/>
<path d="M156.509 189.548C155.761 189.548 155.012 189.556 154.265 189.544C153.952 189.54 153.634 189.518 153.327 189.461C152.718 189.347 152.456 189.059 152.372 188.447C152.343 188.236 152.331 188.021 152.33 187.808C152.325 186.784 152.321 185.76 152.332 184.736C152.335 184.447 152.37 184.155 152.425 183.871C152.501 183.485 152.754 183.246 153.131 183.132C153.504 183.02 153.886 183.006 154.269 183.006C155.848 183.005 157.426 183.003 159.005 183.017C159.302 183.02 159.604 183.073 159.895 183.139C160.263 183.222 160.502 183.471 160.587 183.837C160.644 184.079 160.685 184.331 160.687 184.578C160.698 185.711 160.698 186.844 160.687 187.978C160.684 188.229 160.64 188.485 160.581 188.731C160.498 189.08 160.27 189.328 159.915 189.403C159.565 189.477 159.206 189.532 158.849 189.542C158.07 189.561 157.29 189.548 156.509 189.548C156.509 189.548 156.509 189.548 156.509 189.548ZM156.524 184.607C155.94 184.607 155.356 184.606 154.772 184.607C154.576 184.607 154.55 184.633 154.55 184.826C154.549 185.767 154.549 186.709 154.55 187.651C154.55 187.857 154.57 187.877 154.777 187.877C155.936 187.878 157.095 187.878 158.253 187.877C158.448 187.877 158.475 187.851 158.475 187.658C158.476 186.711 158.475 185.765 158.475 184.819C158.475 184.633 158.449 184.607 158.262 184.607C157.683 184.607 157.103 184.607 156.524 184.607Z" fill="#0A1634"/>
<path d="M145.003 189.486C145.003 189.424 145.003 189.375 145.003 189.325C145.003 187.29 145.004 185.255 145 183.22C144.999 183.084 145.03 183.042 145.172 183.044C145.797 183.052 146.423 183.047 147.048 183.048C147.228 183.048 147.229 183.048 147.229 183.223C147.229 184.694 147.229 186.164 147.229 187.635C147.229 187.693 147.229 187.752 147.229 187.827C148.709 187.827 150.176 187.827 151.653 187.827C151.653 188.388 151.653 188.932 151.653 189.486C149.443 189.486 147.232 189.486 145.003 189.486Z" fill="#0A1634"/>
<path d="M118 245C118 243.895 118.895 243 120 243H125V249H120C118.895 249 118 248.105 118 247V245Z" fill="white"/>
<circle opacity="0.1" cx="163.5" cy="211.5" r="9.5" fill="#00C3F3"/>
<circle opacity="0.1" cx="163.5" cy="219.5" r="9.5" fill="#00C3F3"/>
<circle opacity="0.15" cx="163.5" cy="211.5" r="6.5" fill="#00C3F3"/>
<circle opacity="0.15" cx="163.5" cy="219.5" r="6.5" fill="#00C3F3"/>
<circle opacity="0.15" cx="163.5" cy="211.5" r="3.5" fill="#00C3F3"/>
<circle opacity="0.15" cx="163.5" cy="219.5" r="3.5" fill="#00C3F3"/>
<path fill-rule="evenodd" clip-rule="evenodd" d="M240.607 339.655C240.607 339.655 221.265 334.392 226.146 320.028C226.146 320.028 230.624 310.863 236.965 307.305C236.965 307.305 237.924 326.814 241.672 326.408C245.421 326.005 238.98 304.748 238.98 304.748C238.98 304.748 254.902 292.232 262.12 291.256C262.12 291.256 255.462 312.068 258.994 310.783C262.527 309.501 270.497 288.153 270.497 288.153C270.497 288.153 288.12 280.583 293.676 290.438C299.232 300.293 295.753 306.671 293.184 307.966C290.616 309.257 273.039 313.101 274.032 315.193C275.03 317.281 287.732 318.051 293.845 314.544C293.845 314.544 290.837 333.583 281.062 334.919C271.288 336.258 266.921 331.232 260.894 332.166C254.869 333.098 250.927 335.64 254.263 336.491C257.601 337.34 267.357 333.988 273.104 336.8C278.85 339.612 283.315 341.129 274.871 344.945C266.43 348.759 250.226 351.355 245.419 345.505L240.607 339.655Z" fill="#437B5B"/>
<path fill-rule="evenodd" clip-rule="evenodd" d="M286.026 295.369C286.026 295.369 242.274 321.104 241.181 339.257C241.181 339.257 243.357 346.789 240.824 356.542L241.684 359.885C241.684 359.885 243.753 347.405 246.078 345.241C246.078 345.241 231.63 332.893 286.026 295.369Z" fill="#2C6A47"/>
<path fill-rule="evenodd" clip-rule="evenodd" d="M241.147 354.764C241.147 354.764 236.98 367.605 245.053 379.353L246.8 378.308C246.8 378.308 240.688 364.546 242.389 356.214C244.087 347.883 241.147 354.764 241.147 354.764Z" fill="#437B5B"/>
<path fill-rule="evenodd" clip-rule="evenodd" d="M210.881 318.088C210.881 318.088 179.778 320.381 178.92 296.948C178.92 296.948 180.36 281.297 187.624 272.847C187.624 272.847 199.846 300.768 205.083 298.248C210.323 295.724 189.144 268.083 189.144 268.083C189.144 268.083 205.401 241.66 215.375 236.518C215.375 236.518 217.22 270.26 221.653 266.571C226.089 262.882 225.859 227.686 225.859 227.686C225.859 227.686 247.336 207.589 260.9 219.077C274.462 230.568 272.929 241.65 269.903 244.854C266.879 248.06 243.4 262.712 246.011 265.243C248.621 267.772 267.553 262.354 274.514 254.098C274.514 254.098 280.693 283.372 267.194 290.355C253.692 297.337 244.546 292.27 236.285 296.732C228.022 301.191 223.684 306.923 229.02 306.444C234.354 305.967 246.711 296.052 256.642 297.189C266.572 298.326 273.919 298.239 263.735 308.143C253.548 318.046 231.384 330.171 221.134 324.131L210.881 318.088Z" fill="#709F84"/>
<path fill-rule="evenodd" clip-rule="evenodd" d="M252.792 229.89C252.792 229.89 202.863 290.595 210.87 317.482C210.87 317.482 218.005 327.228 219.482 342.713L222.496 347.098C222.496 347.098 218.91 327.91 221.139 323.533C221.139 323.533 193.64 313.369 252.792 229.89Z" fill="#437B5B"/>
<path fill-rule="evenodd" clip-rule="evenodd" d="M219.44 342.275C219.44 342.275 219.495 362.63 236.621 376.818L238.638 374.637C238.638 374.637 223.386 356.769 221.908 343.939C220.429 331.11 219.44 342.275 219.44 342.275Z" fill="#437B5B"/>
</svg>
