<svg width="96" height="18" viewBox="0 0 96 18" fill="none" xmlns="http://www.w3.org/2000/svg">
<path d="M76.7312 6.75155C76.7757 10.3366 76.8186 13.9246 76.8631 17.5437C74.8957 17.5437 72.9905 17.5437 71.0601 17.5437C71.0601 11.7555 71.0601 5.97317 71.0601 0.128584C71.2083 0.128584 71.3507 0.128584 71.493 0.128584C73.3819 0.128584 75.2708 0.13748 77.1597 0.119688C77.4873 0.116723 77.6697 0.224956 77.8432 0.490349C79.6668 3.25696 81.5023 6.01616 83.3334 8.77684C83.3734 8.83763 83.4164 8.89694 83.4802 8.98886C83.836 8.43435 84.1726 7.89467 84.5269 7.36537C86.0896 5.03169 87.6538 2.69801 89.2313 0.37322C89.3159 0.248678 89.5205 0.13748 89.6702 0.135997C91.6214 0.119688 93.571 0.127101 95.5222 0.122653C95.7402 0.122653 95.8602 0.155272 95.8602 0.420665C95.8543 6.06212 95.8558 11.7021 95.8543 17.3436C95.8543 17.4029 95.8424 17.4622 95.8336 17.5452C93.912 17.5452 92.0054 17.5452 90.0112 17.5452C90.0542 13.9364 90.0957 10.3351 90.1387 6.74562C90.1239 6.76341 90.0631 6.82272 90.0157 6.89092C88.6412 8.91918 87.2728 10.9519 85.8909 12.9757C85.3083 13.8297 84.6989 14.6674 84.0955 15.508C83.8582 15.8387 82.9627 15.8416 82.7285 15.511C81.0635 13.1581 79.3955 10.8066 77.7468 8.44177C77.3702 7.90209 77.0633 7.30903 76.7312 6.75155Z" fill="white"/>
<path d="M56.6712 0.0307223C58.9293 0.0307223 61.1889 0.0129305 63.4469 0.0411008C64.12 0.0499966 64.7991 0.146368 65.4648 0.266463C66.8867 0.52296 67.6265 1.44813 67.8489 2.82699C67.9156 3.23916 67.9734 3.65727 67.9749 4.07389C67.9838 7.30012 67.9942 10.5249 67.9616 13.7511C67.9556 14.3679 67.8059 14.9936 67.6473 15.5955C67.3952 16.5489 66.7339 17.1523 65.7821 17.351C64.9296 17.5289 64.0548 17.6875 63.1889 17.6949C58.8448 17.729 54.4992 17.7246 50.155 17.6979C49.3603 17.6935 48.5582 17.5645 47.7739 17.4132C46.5789 17.1834 45.8183 16.4451 45.5811 15.2441C45.458 14.6199 45.3676 13.9794 45.3631 13.3449C45.3409 10.3529 45.3409 7.36091 45.3631 4.36894C45.3676 3.73437 45.4595 3.09386 45.5811 2.46967C45.8124 1.28356 46.5596 0.525925 47.7368 0.313907C48.7258 0.13599 49.7414 0.0455487 50.7481 0.0233091C52.7215 -0.0196876 54.6978 0.00996526 56.6727 0.00996526C56.6712 0.0188611 56.6712 0.0247917 56.6712 0.0307223ZM56.6727 4.3467C55.0937 4.3467 53.5132 4.34522 51.9342 4.34818C51.4464 4.34818 51.3723 4.42231 51.3723 4.90269C51.3708 7.47508 51.3708 10.0475 51.3723 12.6213C51.3723 13.1314 51.436 13.1951 51.9505 13.1951C55.0967 13.1966 58.2443 13.1966 61.3905 13.1951C61.9079 13.1951 61.9613 13.1403 61.9613 12.6198C61.9628 10.0475 61.9628 7.47508 61.9613 4.90121C61.9613 4.40007 61.9109 4.34818 61.4113 4.34818C59.8322 4.34522 58.2532 4.3467 56.6727 4.3467Z" fill="white"/>
<path d="M31.134 17.7142C29.1102 17.7142 27.0849 17.7349 25.0626 17.7038C24.216 17.6905 23.3576 17.6312 22.5258 17.477C20.8771 17.1701 20.1699 16.3902 19.943 14.7356C19.8644 14.1647 19.8303 13.5835 19.8274 13.0068C19.8155 10.2372 19.8037 7.46615 19.8333 4.69657C19.8422 3.91522 19.9356 3.12497 20.0854 2.35696C20.29 1.3117 20.9749 0.665265 21.9965 0.356875C23.0032 0.0529336 24.0381 0.0158675 25.0745 0.0158675C29.3445 0.0143848 33.6145 0.00845426 37.8845 0.047003C38.6896 0.0544162 39.505 0.19675 40.2923 0.374667C41.2886 0.600029 41.9366 1.27315 42.1664 2.26504C42.3191 2.91888 42.4303 3.59942 42.4362 4.26809C42.4644 7.33271 42.4644 10.3988 42.4347 13.4649C42.4288 14.1455 42.3087 14.8379 42.1501 15.5021C41.9232 16.448 41.3079 17.1182 40.3487 17.3198C39.4012 17.52 38.4286 17.6712 37.4634 17.6964C35.3566 17.7498 33.2453 17.7127 31.134 17.7142C31.134 17.7127 31.134 17.7127 31.134 17.7142ZM31.174 4.34667C29.595 4.34667 28.0145 4.34519 26.4355 4.34667C25.9033 4.34667 25.8336 4.41784 25.8336 4.93824C25.8321 7.48543 25.8321 10.0341 25.8336 12.5813C25.8336 13.1387 25.8869 13.1921 26.4489 13.1936C29.5832 13.1951 32.7175 13.1951 35.8518 13.1936C36.3796 13.1936 36.4508 13.1224 36.4523 12.6005C36.4537 10.04 36.4523 7.4795 36.4523 4.92045C36.4523 4.41784 36.3826 4.34667 35.877 4.34667C34.3084 4.34667 32.7412 4.34667 31.174 4.34667Z" fill="white"/>
<path d="M0.00891523 17.5451C0.00891523 17.3776 0.00891523 17.2441 0.00891523 17.1092C0.00891523 11.6042 0.0118805 6.0991 1.93648e-05 0.594048C-0.00146328 0.227835 0.0815648 0.113672 0.465569 0.119602C2.15727 0.141842 3.84896 0.128498 5.53918 0.129981C6.02697 0.129981 6.02845 0.129981 6.02845 0.604427C6.02845 4.58236 6.02845 8.56029 6.02845 12.5382C6.02845 12.6954 6.02845 12.854 6.02845 13.0572C10.0346 13.0572 14.0021 13.0572 17.9963 13.0572C17.9963 14.5754 17.9963 16.0462 17.9963 17.5466C12.0183 17.5451 6.03883 17.5451 0.00891523 17.5451Z" fill="white"/>
</svg>
