<svg width="298" height="356" viewBox="0 0 298 356" fill="none" xmlns="http://www.w3.org/2000/svg">
<ellipse opacity="0.4" cx="156.5" cy="229.5" rx="129.5" ry="126.5" fill="#366248"/>
<ellipse opacity="0.2" cx="129.5" cy="133.5" rx="129.5" ry="126.5" fill="#4E8DAE"/>
<ellipse opacity="0.2" cx="200.5" cy="145.5" rx="97.5" ry="95.5" fill="#87827F"/>
<rect x="86.5646" y="122.093" width="129.242" height="205.979" rx="33" fill="white"/>
<path d="M163.302 269.509C163.302 275.085 158.781 279.606 153.205 279.606C147.628 279.606 143.108 275.085 143.108 269.509C143.108 263.932 147.628 259.412 153.205 259.412C158.781 259.412 163.302 263.932 163.302 269.509Z" fill="white"/>
<path fill-rule="evenodd" clip-rule="evenodd" d="M153.205 278.106C157.953 278.106 161.802 274.257 161.802 269.509C161.802 264.761 157.953 260.912 153.205 260.912C148.457 260.912 144.608 264.761 144.608 269.509C144.608 274.257 148.457 278.106 153.205 278.106ZM153.205 279.606C158.781 279.606 163.302 275.085 163.302 269.509C163.302 263.932 158.781 259.412 153.205 259.412C147.628 259.412 143.108 263.932 143.108 269.509C143.108 275.085 147.628 279.606 153.205 279.606Z" fill="#00C3F3"/>
<circle cx="153.205" cy="245.276" r="2.0194" fill="#C4C4C4"/>
<circle cx="153.205" cy="233.16" r="2.0194" fill="#00C3F3"/>
<circle cx="153.205" cy="221.043" r="2.0194" fill="#00C3F3"/>
<path d="M71.396 1.90505C71.4088 1.3621 71.8526 0.928619 72.3957 0.928619H77.4869C78.0392 0.928619 78.4869 1.37633 78.4869 1.92862V203.694C78.4869 209.93 73.4319 214.985 67.1962 214.985C66.7434 214.985 66.3793 214.612 66.39 214.159L71.396 1.90505Z" fill="white"/>
<path d="M230.975 1.90508C230.962 1.36213 230.518 0.92865 229.975 0.92865H224.884C224.331 0.92865 223.884 1.37637 223.884 1.92865V203.694C223.884 209.93 228.939 214.985 235.174 214.985C235.627 214.985 235.991 214.612 235.981 214.16L230.975 1.90508Z" fill="white"/>
<rect x="78.4868" y="186.714" width="8.0776" height="16.1552" fill="white"/>
<rect width="8.0776" height="16.1552" transform="matrix(-1 0 0 1 223.884 186.714)" fill="white"/>
<path d="M82.0233 272.156C82.0233 271.052 82.9187 270.156 84.0233 270.156H92.9802V279.548H84.0233C82.9187 279.548 82.0233 278.652 82.0233 277.548V272.156Z" fill="white"/>
<circle opacity="0.1" cx="153.243" cy="220.85" r="14.8701" fill="#00C3F3"/>
<circle opacity="0.1" cx="153.243" cy="233.372" r="14.8701" fill="#00C3F3"/>
<circle opacity="0.15" cx="153.243" cy="220.85" r="10.1743" fill="#00C3F3"/>
<circle opacity="0.15" cx="153.243" cy="233.372" r="10.1743" fill="#00C3F3"/>
<circle opacity="0.15" cx="153.243" cy="220.85" r="5.47847" fill="#00C3F3"/>
<circle opacity="0.15" cx="153.243" cy="233.372" r="5.47847" fill="#00C3F3"/>
<path d="M202.287 277.084C189.363 277.084 176.439 277.067 163.515 277.096C160.145 277.102 157.232 276.223 155.327 273.218C151.998 267.97 155.263 261.318 161.429 260.745C162.255 260.668 163.088 260.674 163.914 260.674C183.666 260.668 203.418 260.674 223.17 260.663C223.85 260.663 224.542 260.639 225.198 260.497C226.57 260.208 227.267 259.258 227.332 257.888C227.39 256.637 226.505 255.61 225.151 255.332C224.536 255.202 223.891 255.185 223.264 255.185C213.998 255.179 204.731 255.173 195.465 255.185C192.218 255.191 189.562 254.098 187.81 251.206C184.78 246.194 187.886 239.672 193.683 238.922C194.597 238.804 195.529 238.775 196.455 238.769C205.429 238.757 214.402 238.763 223.376 238.763C226.031 238.763 227.396 237.789 227.349 235.947C227.303 234.2 225.966 233.326 223.34 233.326C215.779 233.326 208.219 233.35 200.664 233.314C195.406 233.291 191.52 229.182 192.059 224.312C192.546 219.903 196.174 216.881 201.103 216.869C210.323 216.845 219.536 216.863 228.756 216.857C229.289 216.857 229.835 216.869 230.362 216.81C231.698 216.662 232.66 215.594 232.718 214.254C232.771 212.961 231.968 211.851 230.69 211.574C230.128 211.45 229.524 211.468 228.944 211.468C223.235 211.462 217.532 211.474 211.823 211.462C208.295 211.45 205.423 210.175 203.764 206.881C201.138 201.663 204.667 195.618 210.622 195.058C211.108 195.01 211.595 195.01 212.081 195.01C228.762 195.022 245.443 194.945 262.118 195.087C269.966 195.158 277.814 195.624 285.557 197.07C287.608 197.454 289.742 197.808 291.611 198.67C295.503 200.459 297.619 203.699 297.935 208.032C298.023 209.254 297.971 210.488 297.971 211.716C297.971 227.919 297.947 244.128 298 260.332C298.006 262.357 297.578 264.198 296.816 266.028C291.928 277.763 283.875 286.895 273.5 293.89C267.803 297.733 261.696 300.968 255.735 304.403C247.061 309.403 238.357 314.338 229.659 319.296C226.834 320.908 224.712 319.674 224.483 316.392C223.874 307.673 227.473 301.221 234.811 296.753C238.521 294.492 242.243 292.237 245.923 289.929C249.089 287.946 250.355 284.587 249.018 281.624C247.822 278.967 245.759 277.397 242.817 277.143C242.184 277.09 241.551 277.096 240.918 277.096C228.041 277.084 215.164 277.084 202.287 277.084Z" fill="#DDAC88"/>
</svg>
