<svg width="298" height="356" viewBox="0 0 298 356" fill="none" xmlns="http://www.w3.org/2000/svg">
<ellipse opacity="0.4" cx="156.5" cy="229.5" rx="129.5" ry="126.5" fill="#366248"/>
<ellipse opacity="0.2" cx="129.5" cy="133.5" rx="129.5" ry="126.5" fill="#4E8DAE"/>
<ellipse opacity="0.2" cx="200.5" cy="145.5" rx="97.5" ry="95.5" fill="#87827F"/>
<rect x="86.5646" y="122.093" width="129.242" height="205.979" rx="33" fill="white"/>
<path d="M163.302 269.509C163.302 275.085 158.781 279.606 153.205 279.606C147.628 279.606 143.108 275.085 143.108 269.509C143.108 263.932 147.628 259.412 153.205 259.412C158.781 259.412 163.302 263.932 163.302 269.509Z" fill="white"/>
<path fill-rule="evenodd" clip-rule="evenodd" d="M153.205 278.106C157.953 278.106 161.802 274.257 161.802 269.509C161.802 264.761 157.953 260.912 153.205 260.912C148.457 260.912 144.608 264.761 144.608 269.509C144.608 274.257 148.457 278.106 153.205 278.106ZM153.205 279.606C158.781 279.606 163.302 275.085 163.302 269.509C163.302 263.932 158.781 259.412 153.205 259.412C147.628 259.412 143.108 263.932 143.108 269.509C143.108 275.085 147.628 279.606 153.205 279.606Z" fill="#00C3F3"/>
<circle cx="153.205" cy="245.276" r="2.0194" fill="#C4C4C4"/>
<circle cx="153.205" cy="233.16" r="2.0194" fill="#00C3F3"/>
<circle cx="153.205" cy="221.043" r="2.0194" fill="#00C3F3"/>
<path d="M71.396 1.90505C71.4088 1.3621 71.8526 0.928619 72.3957 0.928619H77.4869C78.0392 0.928619 78.4869 1.37633 78.4869 1.92862V203.694C78.4869 209.93 73.4319 214.985 67.1962 214.985C66.7434 214.985 66.3793 214.612 66.39 214.159L71.396 1.90505Z" fill="white"/>
<path d="M230.975 1.90508C230.962 1.36213 230.518 0.92865 229.975 0.92865H224.884C224.331 0.92865 223.884 1.37637 223.884 1.92865V203.694C223.884 209.93 228.939 214.985 235.174 214.985C235.627 214.985 235.991 214.612 235.981 214.16L230.975 1.90508Z" fill="white"/>
<rect x="78.4868" y="186.714" width="8.0776" height="16.1552" fill="white"/>
<rect width="8.0776" height="16.1552" transform="matrix(-1 0 0 1 223.884 186.714)" fill="white"/>
<path d="M168.685 180.146C168.71 182.221 168.735 184.297 168.761 186.391C167.623 186.391 166.52 186.391 165.403 186.391C165.403 183.042 165.403 179.696 165.403 176.314C165.489 176.314 165.571 176.314 165.654 176.314C166.747 176.314 167.84 176.319 168.933 176.309C169.122 176.307 169.228 176.37 169.328 176.523C170.383 178.124 171.445 179.721 172.505 181.318C172.528 181.353 172.553 181.388 172.59 181.441C172.796 181.12 172.99 180.808 173.195 180.501C174.1 179.151 175.005 177.801 175.918 176.456C175.966 176.383 176.085 176.319 176.171 176.318C177.3 176.309 178.429 176.313 179.558 176.311C179.684 176.311 179.753 176.329 179.753 176.483C179.75 179.747 179.751 183.011 179.75 186.275C179.75 186.309 179.743 186.344 179.738 186.392C178.626 186.392 177.523 186.392 176.369 186.392C176.394 184.304 176.418 182.22 176.443 180.143C176.434 180.153 176.399 180.187 176.371 180.227C175.576 181.4 174.784 182.577 173.985 183.748C173.648 184.242 173.295 184.727 172.946 185.213C172.809 185.404 172.29 185.406 172.155 185.215C171.191 183.853 170.226 182.493 169.272 181.124C169.054 180.812 168.877 180.469 168.685 180.146Z" fill="#0A1634"/>
<path d="M157.077 176.257C158.384 176.257 159.691 176.247 160.998 176.263C161.387 176.269 161.78 176.324 162.165 176.394C162.988 176.542 163.416 177.078 163.545 177.875C163.584 178.114 163.617 178.356 163.618 178.597C163.623 180.464 163.629 182.33 163.61 184.196C163.607 184.553 163.52 184.915 163.428 185.264C163.282 185.815 162.9 186.164 162.349 186.279C161.856 186.382 161.35 186.474 160.849 186.478C158.335 186.498 155.82 186.496 153.307 186.48C152.847 186.478 152.383 186.403 151.929 186.315C151.238 186.182 150.797 185.755 150.66 185.06C150.589 184.699 150.537 184.328 150.534 183.961C150.521 182.23 150.521 180.499 150.534 178.768C150.537 178.4 150.59 178.03 150.66 177.669C150.794 176.982 151.226 176.544 151.908 176.421C152.48 176.318 153.067 176.266 153.65 176.253C154.792 176.228 155.935 176.245 157.078 176.245C157.077 176.251 157.077 176.254 157.077 176.257ZM157.078 178.755C156.164 178.755 155.25 178.754 154.336 178.756C154.054 178.756 154.011 178.798 154.011 179.076C154.01 180.565 154.01 182.053 154.011 183.543C154.011 183.838 154.048 183.875 154.346 183.875C156.166 183.875 157.987 183.875 159.808 183.875C160.107 183.875 160.138 183.843 160.138 183.542C160.139 182.053 160.139 180.565 160.138 179.076C160.138 178.786 160.109 178.756 159.82 178.756C158.906 178.754 157.993 178.755 157.078 178.755Z" fill="#0A1634"/>
<path d="M142.301 186.49C141.13 186.49 139.958 186.502 138.788 186.484C138.298 186.476 137.801 186.442 137.32 186.352C136.366 186.175 135.957 185.724 135.825 184.766C135.78 184.436 135.76 184.1 135.759 183.766C135.752 182.163 135.745 180.56 135.762 178.957C135.767 178.505 135.821 178.048 135.908 177.604C136.026 176.999 136.423 176.625 137.014 176.446C137.596 176.27 138.195 176.249 138.795 176.249C141.265 176.248 143.736 176.245 146.207 176.267C146.673 176.271 147.145 176.354 147.6 176.457C148.177 176.587 148.552 176.976 148.684 177.55C148.773 177.929 148.837 178.322 148.841 178.709C148.857 180.483 148.857 182.257 148.84 184.031C148.836 184.425 148.767 184.825 148.675 185.21C148.544 185.757 148.188 186.145 147.633 186.261C147.085 186.377 146.522 186.465 145.963 186.479C144.744 186.51 143.523 186.489 142.301 186.49C142.301 186.489 142.301 186.489 142.301 186.49ZM142.324 178.755C141.41 178.755 140.496 178.754 139.582 178.755C139.274 178.755 139.234 178.796 139.234 179.097C139.233 180.571 139.233 182.046 139.234 183.52C139.234 183.842 139.265 183.873 139.59 183.874C141.404 183.875 143.217 183.875 145.031 183.874C145.336 183.874 145.377 183.833 145.378 183.531C145.379 182.049 145.378 180.568 145.378 179.087C145.378 178.796 145.338 178.755 145.045 178.755C144.138 178.755 143.231 178.755 142.324 178.755Z" fill="#0A1634"/>
<path d="M124.291 186.393C124.291 186.296 124.291 186.219 124.291 186.141C124.291 182.956 124.293 179.77 124.286 176.585C124.285 176.373 124.333 176.307 124.555 176.31C125.534 176.323 126.513 176.315 127.491 176.316C127.773 176.316 127.774 176.316 127.774 176.591C127.774 178.893 127.774 181.194 127.774 183.496C127.774 183.587 127.774 183.679 127.774 183.796C130.092 183.796 132.388 183.796 134.699 183.796C134.699 184.675 134.699 185.526 134.699 186.394C131.24 186.393 127.78 186.393 124.291 186.393Z" fill="#0A1634"/>
<path d="M82.0233 272.156C82.0233 271.052 82.9187 270.156 84.0233 270.156H92.9802V279.548H84.0233C82.9187 279.548 82.0233 278.652 82.0233 277.548V272.156Z" fill="white"/>
<circle opacity="0.1" cx="153.243" cy="220.85" r="14.8701" fill="#00C3F3"/>
<circle opacity="0.1" cx="153.243" cy="233.372" r="14.8701" fill="#00C3F3"/>
<circle opacity="0.15" cx="153.243" cy="220.85" r="10.1743" fill="#00C3F3"/>
<circle opacity="0.15" cx="153.243" cy="233.372" r="10.1743" fill="#00C3F3"/>
<circle opacity="0.15" cx="153.243" cy="220.85" r="5.47847" fill="#00C3F3"/>
<circle opacity="0.15" cx="153.243" cy="233.372" r="5.47847" fill="#00C3F3"/>
<path d="M202.287 277.084C189.363 277.084 176.439 277.067 163.515 277.096C160.145 277.102 157.232 276.223 155.327 273.218C151.998 267.97 155.263 261.318 161.429 260.745C162.255 260.668 163.088 260.674 163.914 260.674C183.666 260.668 203.418 260.674 223.17 260.663C223.85 260.663 224.542 260.639 225.198 260.497C226.57 260.208 227.267 259.258 227.332 257.888C227.39 256.637 226.505 255.61 225.151 255.332C224.536 255.202 223.891 255.185 223.264 255.185C213.998 255.179 204.731 255.173 195.465 255.185C192.218 255.191 189.562 254.098 187.81 251.206C184.78 246.194 187.886 239.672 193.683 238.922C194.597 238.804 195.529 238.775 196.455 238.769C205.429 238.757 214.402 238.763 223.376 238.763C226.031 238.763 227.396 237.789 227.349 235.947C227.303 234.2 225.966 233.326 223.34 233.326C215.779 233.326 208.219 233.35 200.664 233.314C195.406 233.291 191.52 229.182 192.059 224.312C192.546 219.903 196.174 216.881 201.103 216.869C210.323 216.845 219.536 216.863 228.756 216.857C229.289 216.857 229.835 216.869 230.362 216.81C231.698 216.662 232.66 215.594 232.718 214.254C232.771 212.961 231.968 211.851 230.69 211.574C230.128 211.45 229.524 211.468 228.944 211.468C223.235 211.462 217.532 211.474 211.823 211.462C208.295 211.45 205.423 210.175 203.764 206.881C201.138 201.663 204.667 195.618 210.622 195.058C211.108 195.01 211.595 195.01 212.081 195.01C228.762 195.022 245.443 194.945 262.118 195.087C269.966 195.158 277.814 195.624 285.557 197.07C287.608 197.454 289.742 197.808 291.611 198.67C295.503 200.459 297.619 203.699 297.935 208.032C298.023 209.254 297.971 210.488 297.971 211.716C297.971 227.919 297.947 244.128 298 260.332C298.006 262.357 297.578 264.198 296.816 266.028C291.928 277.763 283.875 286.895 273.5 293.89C267.803 297.733 261.696 300.968 255.735 304.403C247.061 309.403 238.357 314.338 229.659 319.296C226.834 320.908 224.712 319.674 224.483 316.392C223.874 307.673 227.473 301.221 234.811 296.753C238.521 294.492 242.243 292.237 245.923 289.929C249.089 287.946 250.355 284.587 249.018 281.624C247.822 278.967 245.759 277.397 242.817 277.143C242.184 277.09 241.551 277.096 240.918 277.096C228.041 277.084 215.164 277.084 202.287 277.084Z" fill="#DDAC88"/>
</svg>
