<svg width="240" height="273" viewBox="0 0 240 273" fill="none" xmlns="http://www.w3.org/2000/svg">
<ellipse opacity="0.4" cx="92" cy="153.5" rx="92" ry="89.5" fill="#366248"/>
<ellipse opacity="0.2" cx="124.5" cy="99.5" rx="99.5" ry="97.5" fill="#4E8DAE"/>
<ellipse opacity="0.2" cx="163.5" cy="198" rx="76.5" ry="75" fill="#87827F"/>
<path d="M128.221 206.726H66.9158C63.8188 206.726 63.0072 205.921 63.0072 202.818C63.0072 178.11 63.0072 153.4 63.0072 128.688C62.9657 128.028 63.104 127.369 63.4072 126.781C63.7104 126.193 64.1674 125.698 64.7297 125.348C68.329 122.884 71.8677 120.343 75.4726 117.89C75.8379 117.676 76.1353 117.363 76.3306 116.988C76.5259 116.612 76.6111 116.19 76.5767 115.768C76.5325 109.352 76.5767 102.931 76.5767 96.5149C76.5767 93.5275 77.4434 92.6566 80.441 92.6566C90.4497 92.6566 100.464 92.6566 110.473 92.6235C111.325 92.6034 112.155 92.3456 112.869 91.8793C117.235 88.9249 121.547 85.8824 125.88 82.8729C127.945 81.4453 128.679 81.4453 130.716 82.8729C135.006 85.8604 139.273 88.8864 143.601 91.8188C144.345 92.3149 145.213 92.5936 146.108 92.6235C156.044 92.6786 165.948 92.6566 175.869 92.6621C179.104 92.6621 179.965 93.5109 179.965 96.7078C179.965 103.08 179.965 109.457 179.965 115.829C179.934 116.23 180.016 116.631 180.203 116.988C180.389 117.345 180.672 117.642 181.019 117.846C184.657 120.332 188.235 122.9 191.878 125.375C192.42 125.711 192.86 126.188 193.151 126.753C193.443 127.319 193.575 127.954 193.534 128.589C193.505 153.341 193.505 178.097 193.534 202.857C193.534 205.949 192.728 206.715 189.587 206.715L128.221 206.726ZM68.5223 133.054V201.153H187.942V133.103C187.39 133.45 186.954 133.709 186.534 133.98C167.941 146.106 149.355 158.249 130.777 170.408C128.994 171.576 127.548 171.61 125.753 170.408C113.034 162.03 100.285 153.696 87.5073 145.406L68.5223 133.054ZM174.516 98.1685H81.9813V99.7229C81.9813 111.138 81.9812 122.559 81.9536 133.974C81.9139 134.42 82.0076 134.867 82.2228 135.26C82.438 135.652 82.7651 135.972 83.1626 136.179C97.8324 145.674 112.484 155.201 127.117 164.758C128.006 165.309 128.558 165.271 129.397 164.72C144.015 155.132 158.648 145.578 173.296 136.058C173.693 135.85 174.019 135.53 174.234 135.137C174.449 134.745 174.543 134.298 174.505 133.853C174.461 122.432 174.505 111.017 174.505 99.596L174.516 98.1685ZM134.978 92.5519C132.649 90.9314 130.678 89.5478 128.679 88.1974C128.552 88.125 128.408 88.0838 128.262 88.0771C128.115 88.0704 127.969 88.0983 127.835 88.1588C125.803 89.5202 123.805 90.9147 121.47 92.5683L134.978 92.5519ZM180.037 123.738V131.692L185.944 127.883L180.037 123.738ZM76.4608 131.714V123.854L70.609 127.961L76.4608 131.714Z" fill="#9C826F"/>
<path d="M68.5218 133.053L87.5013 145.428C100.254 153.751 113.002 162.085 125.747 170.43C127.542 171.609 128.988 171.576 130.771 170.43C149.338 158.252 167.924 146.109 186.528 134.001C186.948 133.731 187.373 133.45 187.936 133.125V201.175H68.5218V133.053Z" fill="#D3B28B"/>
<path d="M174.488 98.1683V99.5794C174.488 111 174.488 122.415 174.488 133.836C174.526 134.282 174.432 134.728 174.217 135.121C174.002 135.513 173.676 135.833 173.279 136.041C158.628 145.573 143.995 155.127 129.38 164.703C128.541 165.254 127.989 165.32 127.1 164.741C112.471 155.187 97.8193 145.661 83.1457 136.162C82.7482 135.955 82.421 135.635 82.2058 135.243C81.9906 134.85 81.8969 134.403 81.9366 133.957C81.9808 122.542 81.9643 111.121 81.9643 99.7062V98.1518L174.488 98.1683ZM128.171 122.526C134.597 122.526 141.023 122.526 147.449 122.526C150.054 122.526 151.313 121.66 151.313 119.852C151.313 118.044 149.96 117.058 147.377 117.058C134.569 117.058 121.762 117.058 108.954 117.058C108.363 117.058 107.657 116.975 107.21 117.256C106.486 117.708 105.636 118.314 105.366 119.053C104.643 120.999 105.995 122.509 108.33 122.515C114.949 122.542 121.563 122.526 128.171 122.526Z" fill="#DCF3FF"/>
<path d="M134.978 92.5518H121.469C123.804 90.9312 125.803 89.5202 127.834 88.1422C127.968 88.0818 128.114 88.0537 128.261 88.0604C128.408 88.0671 128.551 88.1083 128.679 88.1807C130.699 89.5477 132.67 90.9312 134.978 92.5518Z" fill="#D3B28B"/>
<path d="M180.058 123.738L185.965 127.883L180.058 131.692V123.738Z" fill="#D3B28B"/>
<path d="M128.171 122.526C121.546 122.526 114.922 122.526 108.341 122.526C106.006 122.526 104.654 121.01 105.377 119.064C105.647 118.325 106.481 117.719 107.221 117.267C107.668 116.986 108.374 117.069 108.965 117.069C121.773 117.069 134.58 117.069 147.388 117.069C149.971 117.069 151.346 118.044 151.324 119.863C151.302 121.682 150.054 122.537 147.46 122.537C141.026 122.537 134.597 122.533 128.171 122.526Z" fill="#9ACCE6"/>
<path d="M128.171 136.127C121.546 136.127 114.922 136.127 108.341 136.127C106.006 136.127 104.654 134.611 105.377 132.665C105.647 131.926 106.481 131.32 107.221 130.868C107.668 130.587 108.374 130.67 108.965 130.67C121.773 130.67 134.58 130.67 147.388 130.67C149.971 130.67 151.346 131.645 151.324 133.464C151.302 135.283 150.054 136.138 147.46 136.138C141.026 136.138 134.597 136.134 128.171 136.127Z" fill="#9ACCE6"/>
<path d="M76.4603 131.714L70.6085 127.96L76.4603 123.854V131.714Z" fill="#D3B28B"/>
<path d="M70.8499 0.582187C64.3009 0.711103 56.9715 2.88653 50.5126 7.53557C45.9746 10.7988 42.7001 15.0799 41.2157 20.4729C39.3465 27.2651 40.6072 33.5605 45.0114 39.1146C48.4114 43.4118 52.8593 46.3661 58.0166 48.2891C62.0361 49.7905 66.2192 50.4942 70.4952 50.8111C75.4605 51.1755 80.4508 50.5983 85.195 49.111C86.6515 48.6375 88.2359 48.7219 89.632 49.3473C92.6336 50.6284 95.6352 51.8827 98.6368 53.1316C99.0709 53.3224 99.5303 53.4517 100.001 53.5156C101.194 53.6445 101.96 52.8468 101.66 51.7C101.245 50.1262 100.713 48.5792 100.23 47.0215C99.8074 45.6544 99.3709 44.2927 98.9615 42.923C98.8231 42.4833 98.7987 42.0165 98.8907 41.5652C98.9827 41.1139 99.1881 40.6924 99.4882 40.3394C101.125 38.2498 102.613 36.0583 103.51 33.539C105.819 27.061 105.322 20.8434 101.614 14.9724C98.1484 9.49077 93.2366 5.70929 87.1733 3.34583C82.3926 1.48192 77.4153 0.611729 70.8499 0.582187Z" fill="#1D4D67"/>
<circle cx="56.9248" cy="26.2284" r="4.13649" fill="#182E4C"/>
<circle cx="72.6435" cy="26.2284" r="4.13649" fill="#182E4C"/>
<circle cx="88.3621" cy="26.2284" r="4.13649" fill="#182E4C"/>
<path d="M205.211 103.495C206.089 102.278 207.077 101.283 208.08 100.31C208.978 99.4378 209.922 98.6127 210.849 97.7725C211.294 97.3706 211.338 97.2289 211.121 96.6804C210.285 94.5753 209.476 92.46 208.995 90.2323C208.866 89.6007 208.804 88.9557 208.81 88.3079C208.809 87.4663 209.26 87.1295 210.09 87.2237C211.146 87.3446 212.091 87.7629 213.037 88.2073C214.768 89.0248 216.446 89.9505 218.061 90.9791C218.463 91.2324 218.562 91.2105 218.933 90.8871C220.117 89.8606 221.277 88.8032 222.502 87.8296C223.391 87.1152 224.343 86.4586 225.446 86.1072C225.742 86.0066 226.048 85.9403 226.358 85.9094C227.114 85.8473 227.648 86.1827 227.813 86.9186C227.964 87.534 228.028 88.1698 228.002 88.8071C227.864 91.1363 227.263 93.383 226.548 95.6026C226.355 96.2019 226.365 96.2079 226.882 96.5621C228.234 97.5021 229.605 98.4166 230.92 99.4055C231.854 100.108 232.779 100.842 233.503 101.782C233.644 101.958 233.762 102.153 233.853 102.36C234.015 102.762 233.926 103.027 233.564 103.283C232.931 103.726 232.201 103.924 231.474 104.1C229.313 104.631 227.116 104.908 224.912 105.112C224.136 105.184 224.116 105.198 223.935 105.951C223.451 107.965 222.837 109.948 222.098 111.887C221.824 112.605 221.523 113.315 221.018 113.914C220.914 114.047 220.799 114.17 220.675 114.283C220.284 114.618 219.883 114.628 219.492 114.302C218.703 113.619 218.062 112.778 217.609 111.83C216.698 110.006 215.841 108.153 214.967 106.31C214.772 105.9 214.716 105.853 214.259 105.879C212.002 106.032 209.74 106.028 207.49 105.867C206.771 105.797 206.062 105.662 205.37 105.463C204.734 105.298 204.568 104.878 204.836 104.258C204.953 103.974 205.11 103.698 205.211 103.495Z" fill="#9C826F"/>
<path d="M32.0127 114.201C31.5476 113.2 31.2651 112.209 31.0017 111.216C30.765 110.326 30.5752 109.424 30.3697 108.528C30.2719 108.098 30.1968 108.019 29.7673 107.96C28.1164 107.739 26.4687 107.498 24.867 107.005C24.4156 106.861 23.9795 106.669 23.5662 106.432C23.0261 106.13 22.9721 105.72 23.331 105.221C23.7883 104.587 24.3963 104.132 25.0215 103.685C26.1686 102.868 27.3657 102.125 28.6059 101.459C28.913 101.292 28.9345 101.221 28.8608 100.866C28.6279 99.7382 28.367 98.6136 28.183 97.4781C28.0444 96.6511 27.9655 95.8045 28.137 94.9704C28.179 94.7443 28.2464 94.5242 28.3379 94.3146C28.5699 93.8075 28.9773 93.585 29.5083 93.7445C29.9573 93.8688 30.3881 94.0564 30.7878 94.3018C32.2318 95.2283 33.4569 96.4212 34.6234 97.6779C34.9384 98.0173 34.9456 98.0134 35.3587 97.8091C36.4478 97.28 37.5273 96.7295 38.6346 96.2415C39.421 95.8949 40.2241 95.5657 41.0876 95.4394C41.2514 95.4122 41.4183 95.4068 41.5843 95.4232C41.9005 95.4637 42.0382 95.616 42.0724 95.9403C42.1287 96.5052 41.9931 97.0448 41.8448 97.5744C41.4079 99.1514 40.7961 100.66 40.1342 102.147C39.9009 102.671 39.9033 102.688 40.3206 103.075C41.4387 104.11 42.4899 105.217 43.4673 106.388C43.8294 106.822 44.1765 107.27 44.3794 107.81C44.4269 107.924 44.4647 108.042 44.4923 108.162C44.5667 108.534 44.4287 108.794 44.0797 108.928C43.3575 109.188 42.5877 109.297 41.8167 109.247C40.3193 109.175 38.8225 109.059 37.3262 108.957C36.9928 108.934 36.9429 108.953 36.7957 109.255C36.0816 110.758 35.2656 112.207 34.3534 113.593C34.0501 114.028 33.7082 114.435 33.332 114.807C32.9973 115.155 32.6687 115.111 32.3673 114.716C32.2273 114.539 32.1063 114.339 32.0127 114.201Z" fill="#9C826F"/>
<path d="M149.794 48.7719C149.862 47.6534 150.081 46.6326 150.319 45.6183C150.53 44.7101 150.788 43.8133 151.03 42.9137C151.146 42.4828 151.118 42.3758 150.777 42.1154C149.464 41.1182 148.163 40.1039 147.019 38.888C146.699 38.5403 146.414 38.1575 146.17 37.7459C145.847 37.2146 145.992 36.8226 146.533 36.5517C147.22 36.2079 147.954 36.0962 148.699 36.0005C150.064 35.8279 151.437 35.7451 152.811 35.7524C153.152 35.7524 153.204 35.6994 153.306 35.3471C153.632 34.2278 153.933 33.098 154.304 31.9957C154.571 31.1907 154.898 30.3971 155.433 29.7361C155.575 29.5547 155.735 29.3911 155.911 29.2484C156.347 28.9085 156.8 28.9075 157.181 29.3071C157.508 29.6357 157.791 30.0119 158.019 30.4246C158.826 31.9512 159.321 33.6094 159.736 35.296C159.848 35.7515 159.856 35.7515 160.305 35.7695C161.486 35.8254 162.669 35.8576 163.846 35.9589C164.682 36.0309 165.525 36.1265 166.324 36.4324C166.478 36.4876 166.623 36.5636 166.758 36.6587C167.01 36.8481 167.058 37.0508 166.936 37.3567C166.721 37.8879 166.353 38.3037 165.979 38.7042C164.869 39.8994 163.641 40.9487 162.38 41.9544C161.936 42.3085 161.93 42.3256 162.107 42.873C162.584 44.3381 162.97 45.835 163.262 47.3542C163.371 47.9167 163.46 48.4849 163.382 49.0645C163.37 49.1894 163.347 49.313 163.315 49.4338C163.206 49.8012 162.966 49.967 162.604 49.9168C161.863 49.7991 161.152 49.5227 160.514 49.1042C159.263 48.3144 158.033 47.4849 156.797 46.6686C156.522 46.4867 156.47 46.4791 156.203 46.678C154.89 47.6725 153.514 48.5699 152.086 49.3637C151.623 49.6052 151.14 49.8021 150.644 49.9518C150.194 50.1005 149.933 49.9016 149.858 49.4035C149.821 49.1772 149.81 48.9404 149.794 48.7719Z" fill="#9C826F"/>
</svg>
