<svg width="16" height="12" viewBox="0 0 16 12" fill="none" xmlns="http://www.w3.org/2000/svg">
<path opacity="0.2" d="M0.278239 3.02989C0.738491 3.5704 1.19435 4.1059 1.67154 4.66586C3.43103 3.04055 5.49464 2.19153 7.90501 2.19466C10.3041 2.19843 12.3834 2.99728 14.1542 4.62761C14.6407 4.08521 15.1129 3.55849 15.5945 3.02174C13.403 1.07727 10.8741 -0.000626773 7.93761 2.73427e-07C5.00178 0.00062732 2.47165 1.0804 0.278239 3.02989Z" fill="white"/>
<path opacity="0.2" d="M12.9484 5.94522C12.7038 5.7615 12.4706 5.57966 12.2304 5.4091C11.5463 4.92188 10.8014 4.54816 9.99748 4.30989C9.0751 4.03649 8.13202 3.93742 7.16887 4.04339C6.04144 4.16692 4.99867 4.53312 4.03176 5.11501C3.6756 5.32884 3.34891 5.59094 3.00591 5.82734C2.91185 5.89193 2.91436 5.94397 2.98898 6.02423C3.42227 6.4895 3.85431 6.95665 4.2807 7.42819C4.36974 7.52664 4.43307 7.49466 4.51772 7.43258C5.11028 6.99553 5.77056 6.69266 6.46345 6.45564C6.97951 6.27944 7.50685 6.16532 8.05552 6.17598C8.61986 6.18726 9.15661 6.33337 9.68396 6.51897C10.2866 6.73091 10.8484 7.025 11.3682 7.39558C11.4748 7.47146 11.5375 7.46958 11.6278 7.37176C12.0304 6.9347 12.4411 6.50518 12.8487 6.07252C12.88 6.03928 12.9057 6.0004 12.9484 5.94522Z" fill="white"/>
<path d="M5.68404 9.02588C6.43148 9.82286 7.17954 10.6205 7.94141 11.4331C8.69324 10.6067 9.43503 9.79025 10.1762 8.97509C9.16415 7.8207 6.94001 7.58556 5.68404 9.02588Z" fill="white"/>
</svg>
